<?xml version="1.0" encoding="utf-8"?>
<!-- Generator: Adobe Illustrator 25.2.0, SVG Export Plug-In . SVG Version: 6.00 Build 0)  -->
<svg version="1.1" id="Layer_1" xmlns="http://www.w3.org/2000/svg" xmlns:xlink="http://www.w3.org/1999/xlink" x="0px" y="0px"
	 viewBox="0 0 30 30" style="enable-background:new 0 0 30 30;" xml:space="preserve">
<path id="Path_863" d="M28,12.8c-0.3-0.3-0.7-0.5-1.2-0.5c-0.5,0-0.9,0.2-1.2,0.5l-7.9,8V1.6c0-0.4-0.2-0.8-0.5-1.1
	C17,0.2,16.5,0,16.1,0h-2.2c-0.4,0-0.9,0.1-1.2,0.5c-0.3,0.3-0.5,0.7-0.5,1.1v19.2l-7.9-8c-0.3-0.3-0.7-0.5-1.2-0.5
	c-0.5,0-0.9,0.2-1.2,0.5l-1.5,1.5C0.2,14.5,0,15,0,15.4c0,0.4,0.2,0.8,0.5,1.1l13.4,13c0.3,0.3,0.7,0.5,1.2,0.5
	c0.4,0,0.8-0.2,1.2-0.5l13.4-13c0.3-0.3,0.5-0.7,0.5-1.1c0-0.4-0.2-0.8-0.5-1.1L28,12.8z"/>
</svg>
