<?xml version="1.0" encoding="utf-8"?>
<!-- Generator: Adobe Illustrator 25.2.0, SVG Export Plug-In . SVG Version: 6.00 Build 0)  -->
<svg version="1.1" id="Layer_1" xmlns="http://www.w3.org/2000/svg" xmlns:xlink="http://www.w3.org/1999/xlink" x="0px" y="0px"
	 viewBox="0 0 30 30" style="enable-background:new 0 0 30 30;" xml:space="preserve">
<path id="Path_862" d="M2,17.2c0.3,0.3,0.7,0.5,1.2,0.5c0.5,0,0.9-0.2,1.2-0.5l7.9-8v19.2c0,0.4,0.2,0.8,0.5,1.1
	c0.3,0.3,0.7,0.5,1.2,0.5h2.2c0.4,0,0.9-0.1,1.2-0.5c0.3-0.3,0.5-0.7,0.5-1.1V9.2l7.9,8c0.3,0.3,0.7,0.5,1.2,0.5
	c0.5,0,0.9-0.2,1.2-0.5l1.5-1.5c0.3-0.3,0.5-0.7,0.5-1.1c0-0.4-0.2-0.8-0.5-1.1l-13.3-13C15.9,0.2,15.4,0,15,0
	c-0.4,0-0.8,0.2-1.2,0.5l-13.4,13C0.2,13.8,0,14.2,0,14.6c0,0.4,0.2,0.8,0.5,1.1L2,17.2z"/>
</svg>
