<?xml version="1.0" encoding="utf-8"?>
<!-- Generator: Adobe Illustrator 25.2.0, SVG Export Plug-In . SVG Version: 6.00 Build 0)  -->
<svg version="1.1" id="Layer_1" xmlns="http://www.w3.org/2000/svg" xmlns:xlink="http://www.w3.org/1999/xlink" x="0px" y="0px"
	 viewBox="0 0 30 30" style="enable-background:new 0 0 30 30;" xml:space="preserve">
<path id="Path_861" d="M12.8,2c-0.3,0.3-0.5,0.7-0.5,1.2c0,0.5,0.2,0.9,0.5,1.2l8,7.9H1.6c-0.4,0-0.8,0.2-1.1,0.5
	C0.2,13,0,13.5,0,13.9v2.2c0,0.4,0.1,0.9,0.5,1.2c0.3,0.3,0.7,0.5,1.1,0.5h19.2l-8,7.9c-0.3,0.3-0.5,0.7-0.5,1.2
	c0,0.5,0.2,0.9,0.5,1.2l1.5,1.5c0.3,0.3,0.7,0.5,1.1,0.5c0.4,0,0.8-0.2,1.1-0.5l13-13.3c0.3-0.3,0.5-0.7,0.5-1.2
	c0-0.4-0.2-0.8-0.5-1.2l-13-13.3C16.2,0.2,15.8,0,15.4,0c-0.4,0-0.8,0.2-1.1,0.5L12.8,2z"/>
</svg>
