<?xml version="1.0" encoding="utf-8"?>
<!-- Generator: Adobe Illustrator 25.2.0, SVG Export Plug-In . SVG Version: 6.00 Build 0)  -->
<svg version="1.1" id="Layer_1" xmlns="http://www.w3.org/2000/svg" xmlns:xlink="http://www.w3.org/1999/xlink" x="0px" y="0px"
	 viewBox="0 0 30 30" style="enable-background:new 0 0 30 30;" xml:space="preserve">
<path id="Path_860" d="M17.2,28c0.6-0.6,0.7-1.5,0.1-2.2c0-0.1-0.1-0.1-0.1-0.1l-8-7.9h19.2c0.4,0,0.8-0.2,1.1-0.5
	c0.3-0.3,0.5-0.7,0.5-1.2v-2.2c0-0.4-0.1-0.9-0.5-1.2c-0.3-0.3-0.7-0.5-1.1-0.5H9.2l8-7.9c0.3-0.3,0.5-0.7,0.5-1.2
	c0-0.5-0.2-0.9-0.5-1.2l-1.5-1.5C15.5,0.1,15,0,14.6,0c-0.4,0-0.8,0.2-1.1,0.5l-13,13.3C0.2,14.1,0,14.6,0,15c0,0.4,0.2,0.8,0.5,1.2
	l13,13.3c0.3,0.3,0.7,0.5,1.1,0.5c0.4,0,0.8-0.2,1.1-0.5L17.2,28z"/>
</svg>
