<?xml version="1.0" encoding="utf-8"?>
<!-- Generator: Adobe Illustrator 25.2.0, SVG Export Plug-In . SVG Version: 6.00 Build 0)  -->
<svg version="1.1" id="Layer_1" xmlns="http://www.w3.org/2000/svg" xmlns:xlink="http://www.w3.org/1999/xlink" x="0px" y="0px"
	 viewBox="0 0 27.7 30" style="enable-background:new 0 0 27.7 30;" xml:space="preserve">
<path id="Path_798" d="M9.1,16.9c0.4,0,0.7-0.3,0.7-0.7v-2.3c0-0.4-0.4-0.7-0.7-0.7H6.7c-0.4,0-0.7,0.3-0.8,0.7v2.3
	c0,0.4,0.3,0.7,0.7,0.7c0,0,0,0,0.1,0H9.1z M15.8,16.2v-2.3c0-0.4-0.4-0.7-0.7-0.7h-2.5c-0.4,0-0.7,0.3-0.7,0.7v2.3
	c0,0.4,0.3,0.7,0.7,0.7c0,0,0,0,0.1,0h2.5C15.5,16.9,15.8,16.6,15.8,16.2L15.8,16.2z M21.8,16.2v-2.3c0-0.4-0.4-0.7-0.8-0.7h-2.5
	c-0.4,0-0.7,0.3-0.7,0.7v2.3c0,0.4,0.3,0.7,0.7,0.7c0,0,0,0,0,0H21C21.4,16.9,21.7,16.6,21.8,16.2L21.8,16.2z M15.8,21.8v-2.3
	c0-0.4-0.4-0.7-0.7-0.7h-2.5c-0.4,0-0.7,0.3-0.7,0.7v2.3c0,0.4,0.3,0.7,0.7,0.7c0,0,0,0,0.1,0h2.5C15.5,22.5,15.8,22.2,15.8,21.8z
	 M9.9,21.8v-2.3c0-0.4-0.4-0.7-0.7-0.7H6.7c-0.4,0-0.7,0.3-0.8,0.7v2.3c0,0.4,0.3,0.7,0.7,0.7c0,0,0,0,0.1,0h2.5
	C9.5,22.5,9.9,22.2,9.9,21.8z M21.8,21.8v-2.3c0-0.4-0.4-0.7-0.8-0.7h-2.5c-0.4,0-0.7,0.3-0.7,0.7v2.3c0,0.4,0.3,0.7,0.7,0.7
	c0,0,0,0,0,0H21C21.4,22.5,21.7,22.2,21.8,21.8z M27.7,6.6c-0.1-1.6-1.4-2.8-3-2.8h-3V0.7C21.7,0.3,21.4,0,21,0h-2.5
	c-0.4,0-0.7,0.3-0.7,0.7v3H9.9v-3C9.9,0.3,9.5,0,9.1,0H6.7C6.3,0,6,0.3,5.9,0.7v3H3C1.4,3.7,0,5,0,6.6v20.6C0,28.8,1.3,30,2.9,30
	c0,0,0,0,0.1,0h21.8c1.6,0,2.9-1.2,3-2.8V6.6z M24.7,26.8c0,0.2-0.1,0.3-0.3,0.4c0,0,0,0,0,0h-21c-0.2,0-0.4-0.1-0.4-0.4V9.4h21.8
	V26.8z"/>
</svg>
