<?xml version="1.0" encoding="utf-8"?>
<!-- Generator: Adobe Illustrator 25.2.0, SVG Export Plug-In . SVG Version: 6.00 Build 0)  -->
<svg version="1.1" id="Layer_1" xmlns="http://www.w3.org/2000/svg" xmlns:xlink="http://www.w3.org/1999/xlink" x="0px" y="0px"
	 viewBox="0 0 30 25.4" style="enable-background:new 0 0 30 25.4;" xml:space="preserve">
<path id="Path_797" d="M20,6.3h7.1v16.3H2.8V6.3h7.1l1.4-3.6h7.3L20,6.3z M19,0h-7.7c-1.2,0-2.2,0.7-2.6,1.8L8,3.6H2.8
	C1.3,3.6,0,4.8,0,6.3v16.3c0,1.5,1.2,2.7,2.8,2.7c0,0,0,0,0.1,0h24.4c1.5,0,2.8-1.2,2.8-2.7V6.3c0-1.5-1.3-2.7-2.8-2.7H22l-0.9-2.2
	C20.8,0.6,19.9,0,19,0z M15,21.3c3.8-0.1,6.7-3.3,6.6-7c-0.1-3.8-3.3-6.7-7-6.6C10.9,7.8,8,10.8,8,14.5C8,18.3,11.2,21.4,15,21.3
	C15,21.3,15,21.3,15,21.3z M15,10.4c2.3-0.1,4.1,1.7,4.2,3.9c0.1,2.3-1.7,4.1-3.9,4.2c-0.1,0-0.2,0-0.3,0c-2.3,0.1-4.1-1.7-4.2-3.9
	c-0.1-2.3,1.7-4.1,3.9-4.2C14.8,10.4,14.9,10.4,15,10.4z"/>
</svg>
