<?xml version="1.0" encoding="utf-8"?>
<!-- Generator: Adobe Illustrator 25.2.0, SVG Export Plug-In . SVG Version: 6.00 Build 0)  -->
<svg version="1.1" id="Layer_1" xmlns="http://www.w3.org/2000/svg" xmlns:xlink="http://www.w3.org/1999/xlink" x="0px" y="0px"
	 viewBox="0 0 22 16" style="enable-background:new 0 0 22 16;" xml:space="preserve">
<style type="text/css">
	.st0{fill-rule:evenodd;clip-rule:evenodd;}
</style>
<g id="Group_71" transform="translate(-544 -948)">
	<path id="Path_700" class="st0" d="M562.9,952h2.8c0.2,0,0.4,0.2,0.4,0.4v1.8c0,0.2-0.1,0.4-0.3,0.4c0,0,0,0,0,0h-1.9
		c0.6,0.6,0.9,1.3,0.9,2.2v6.9c0,0.2-0.1,0.4-0.3,0.4c0,0,0,0,0,0h-2.8c-0.2,0-0.3-0.2-0.3-0.4c0,0,0,0,0,0v-1.8h-12.4v1.8
		c0,0.2-0.1,0.4-0.3,0.4c0,0,0,0,0,0h-2.8c-0.2,0-0.4-0.2-0.3-0.4c0,0,0,0,0,0v-6.9c0-0.8,0.3-1.6,0.9-2.2h-1.9
		c-0.2,0-0.4-0.2-0.3-0.4c0,0,0,0,0,0v-1.8c0-0.2,0.1-0.4,0.3-0.4c0,0,0,0,0,0h2.8c0.2,0,0.4,0.2,0.3,0.4c0,0,0,0,0,0v1.5l1.5-4.3
		c0.3-0.9,1.2-1.6,2.2-1.6h7.6c1,0,1.9,0.7,2.2,1.6l1.5,4.2v-1.4C562.5,952.2,562.7,952,562.9,952C562.9,952,562.9,952,562.9,952z
		 M551.2,948.7c-0.7,0-1.3,0.4-1.5,1.1l-1.4,4h13.6l-1.5-3.9c-0.2-0.7-0.8-1.1-1.5-1.1H551.2z M546.8,952.8h-2.1v1.1h2.1V952.8z
		 M563.9,963.3v-6.6c0-1.2-0.9-2.1-2-2.2h-13.8c-1.2,0-2.1,1-2,2.2v6.6h2.1v-1.8c0-0.2,0.1-0.4,0.3-0.4c0,0,0,0,0,0h13
		c0.2,0,0.4,0.2,0.4,0.4c0,0,0,0,0,0v1.8H563.9z M563.2,953.8h2.1v-1.1h-2.1V953.8z M547.4,957.5c0-0.8,0.7-1.4,1.5-1.3
		s1.4,0.7,1.3,1.5c0,0.7-0.6,1.3-1.4,1.3C548,958.9,547.4,958.3,547.4,957.5C547.4,957.5,547.4,957.5,547.4,957.5L547.4,957.5z
		 M548.1,957.5c0,0.4,0.4,0.7,0.7,0.6s0.7-0.4,0.6-0.7c0-0.4-0.3-0.6-0.7-0.6C548.4,956.8,548.1,957.1,548.1,957.5
		C548.1,957.5,548.1,957.5,548.1,957.5L548.1,957.5z M561.1,956c-0.8,0-1.5,0.6-1.6,1.4c0,0.8,0.6,1.5,1.4,1.6
		c0.8,0,1.5-0.6,1.6-1.4c0,0,0-0.1,0-0.1C562.5,956.7,561.9,956,561.1,956L561.1,956L561.1,956z M561.1,958.2
		c-0.4,0-0.7-0.3-0.8-0.7c0-0.4,0.3-0.7,0.7-0.8s0.7,0.3,0.8,0.7c0,0,0,0,0,0C561.8,957.9,561.5,958.2,561.1,958.2L561.1,958.2
		L561.1,958.2z M550.2,958.9h9.6c0.2,0,0.4,0.2,0.4,0.4c0,0,0,0,0,0c0,0.2-0.1,0.4-0.3,0.4c0,0,0,0,0,0h-9.6c-0.2,0-0.4-0.2-0.3-0.4
		C549.9,959.1,550,958.9,550.2,958.9z"/>
</g>
</svg>
