<?xml version="1.0" encoding="utf-8"?>
<!-- Generator: Adobe Illustrator 25.2.0, SVG Export Plug-In . SVG Version: 6.00 Build 0)  -->
<svg version="1.1" id="Layer_1" xmlns="http://www.w3.org/2000/svg" xmlns:xlink="http://www.w3.org/1999/xlink" x="0px" y="0px"
	 viewBox="0 0 30 25.4" style="enable-background:new 0 0 30 25.4;" xml:space="preserve">
<path id="Path_818" d="M8.5,10c-1,0-1.8,0.8-1.9,1.8c0,1,0.8,1.8,1.8,1.8c0,0,0,0,0,0c1,0,1.9-0.8,1.9-1.8C10.3,10.8,9.5,10,8.5,10z
	 M15,10c-1,0-1.9,0.8-1.9,1.8c0,1,0.8,1.8,1.8,1.8c0,0,0,0,0.1,0c1,0,1.8-0.8,1.9-1.8C16.8,10.8,16,10,15,10z M21.6,10
	c-1,0-1.9,0.8-1.9,1.8c0,1,0.8,1.8,1.8,1.8c0,0,0,0,0,0c1,0,1.8-0.8,1.9-1.8C23.4,10.8,22.6,10,21.6,10z M15,0C6.7,0,0,5.3,0,11.8
	c0,2.7,1.1,5.3,3,7.2c-0.6,1.5-1.5,3-2.7,4.1c-0.4,0.4-0.5,1-0.3,1.5c0.3,0.5,0.8,0.8,1.3,0.8c2.9,0,5.8-0.9,8.1-2.6
	c1.8,0.5,3.6,0.8,5.4,0.8c8.2,0,15-5.3,15-11.8C30,5.3,23.3,0,15,0z M15,20.9c-1.6,0-3.1-0.2-4.6-0.7L9,19.8l-1.1,0.8
	c-1,0.7-2.2,1.3-3.4,1.6c0.5-0.7,0.9-1.5,1.2-2.3l0.6-1.6l-1.2-1.2c-1.4-1.4-2.2-3.3-2.3-5.3c0-5,5.4-9.1,12.2-9.1
	c6.7,0,12.2,4.1,12.2,9.1C27.2,16.8,21.7,20.9,15,20.9z"/>
</svg>
