<?xml version="1.0" encoding="utf-8"?>
<!-- Generator: Adobe Illustrator 25.2.0, SVG Export Plug-In . SVG Version: 6.00 Build 0)  -->
<svg version="1.1" id="Layer_1" xmlns="http://www.w3.org/2000/svg" xmlns:xlink="http://www.w3.org/1999/xlink" x="0px" y="0px"
	 viewBox="0 0 17.3 30" style="enable-background:new 0 0 17.3 30;" xml:space="preserve">
<path id="Path_859" d="M16.8,16.2c0.3-0.3,0.5-0.7,0.5-1.2c0-0.4-0.2-0.9-0.5-1.2L4.2,0.5C3.9,0.2,3.5,0,3.1,0C2.6,0,2.2,0.2,2,0.5
	L0.5,2C0.2,2.3,0,2.7,0,3.2C0,3.6,0.2,4,0.4,4.3L10.5,15L0.4,25.7C0.1,26,0,26.4,0,26.8c0,0.4,0.2,0.9,0.5,1.2L2,29.5
	C2.2,29.8,2.6,30,3.1,30c0.4,0,0.8-0.2,1.1-0.5L16.8,16.2z"/>
</svg>
