<?xml version="1.0" encoding="utf-8"?>
<!-- Generator: Adobe Illustrator 25.2.0, SVG Export Plug-In . SVG Version: 6.00 Build 0)  -->
<svg version="1.1" id="Layer_1" xmlns="http://www.w3.org/2000/svg" xmlns:xlink="http://www.w3.org/1999/xlink" x="0px" y="0px"
	 viewBox="0 0 30 17.3" style="enable-background:new 0 0 30 17.3;" xml:space="preserve">
<path id="Path_681" d="M16.2,0.5C15.9,0.2,15.4,0,15,0c-0.4,0-0.9,0.2-1.2,0.5L0.5,13.1C0.2,13.4,0,13.8,0,14.2
	c0,0.4,0.2,0.8,0.5,1.1L2,16.8c0.3,0.3,0.7,0.5,1.2,0.5c0.4,0,0.9-0.2,1.2-0.5L15,6.8l10.7,10.1c0.3,0.3,0.7,0.5,1.2,0.5
	c0.4,0,0.9-0.2,1.2-0.5l1.5-1.4c0.3-0.3,0.5-0.7,0.5-1.1c0-0.4-0.2-0.8-0.5-1.1L16.2,0.5z"/>
</svg>
