<?xml version="1.0" encoding="utf-8"?>
<!-- Generator: Adobe Illustrator 25.2.0, SVG Export Plug-In . SVG Version: 6.00 Build 0)  -->
<svg version="1.1" id="Layer_1" xmlns="http://www.w3.org/2000/svg" xmlns:xlink="http://www.w3.org/1999/xlink" x="0px" y="0px"
	 viewBox="0 0 17.3 30" style="enable-background:new 0 0 17.3 30;" xml:space="preserve">
<path id="Path_858" d="M0.5,13.8C0.2,14.1,0,14.6,0,15c0,0.4,0.2,0.9,0.5,1.2l12.6,13.3c0.3,0.3,0.7,0.5,1.1,0.5
	c0.4,0,0.8-0.2,1.1-0.5l1.4-1.5c0.3-0.3,0.5-0.7,0.5-1.2c0-0.4-0.2-0.9-0.4-1.2L6.8,15L16.9,4.3c0.3-0.3,0.5-0.7,0.4-1.2
	c0-0.4-0.2-0.9-0.5-1.2l-1.4-1.5C15.1,0.2,14.7,0,14.2,0c-0.4,0-0.8,0.2-1.1,0.5L0.5,13.8z"/>
</svg>
