<?xml version="1.0" encoding="utf-8"?>
<!-- Generator: Adobe Illustrator 25.2.0, SVG Export Plug-In . SVG Version: 6.00 Build 0)  -->
<svg version="1.1" id="Layer_1" xmlns="http://www.w3.org/2000/svg" xmlns:xlink="http://www.w3.org/1999/xlink" x="0px" y="0px"
	 viewBox="0 0 30 17.3" style="enable-background:new 0 0 30 17.3;" xml:space="preserve">
<path id="Path_682" d="M13.8,16.8c0.3,0.3,0.7,0.5,1.2,0.5c0.4,0,0.9-0.2,1.2-0.5L29.5,4.2C29.8,3.9,30,3.5,30,3.1
	c0-0.4-0.2-0.8-0.5-1.1L28,0.5C27.7,0.2,27.3,0,26.8,0c-0.4,0-0.9,0.2-1.2,0.5L15,10.5L4.3,0.5C4,0.1,3.6,0,3.2,0
	C2.7,0,2.3,0.2,2,0.5L0.5,2C0.2,2.2,0,2.6,0,3.1c0,0.4,0.2,0.8,0.5,1.1L13.8,16.8z"/>
</svg>
