<?xml version="1.0" encoding="utf-8"?>
<!-- Generator: Adobe Illustrator 25.2.0, SVG Export Plug-In . SVG Version: 6.00 Build 0)  -->
<svg version="1.1" id="Layer_1" xmlns="http://www.w3.org/2000/svg" xmlns:xlink="http://www.w3.org/1999/xlink" x="0px" y="0px"
	 viewBox="0 0 30 30" style="enable-background:new 0 0 30 30;" xml:space="preserve">
<style type="text/css">
	.st0{fill-rule:evenodd;clip-rule:evenodd;}
</style>
<path id="Path_833" class="st0" d="M0.5,25.1c-0.6,0.6-0.6,1.6,0,2.2l2.2,2.2c0.6,0.6,1.6,0.6,2.2,0L15,19.5l10.1,10.1
	c0.6,0.6,1.6,0.6,2.2,0l2.2-2.2c0.6-0.6,0.6-1.6,0-2.2L19.5,15L29.5,4.9c0.6-0.6,0.6-1.6,0-2.2l-2.2-2.2c-0.6-0.6-1.6-0.6-2.2,0
	L15,10.5L4.9,0.5c-0.6-0.6-1.6-0.6-2.2,0L0.5,2.7c-0.6,0.6-0.6,1.6,0,2.2L10.5,15L0.5,25.1z"/>
</svg>
