<?xml version="1.0" encoding="utf-8"?>
<!-- Generator: Adobe Illustrator 25.2.0, SVG Export Plug-In . SVG Version: 6.00 Build 0)  -->
<svg version="1.1" id="Layer_1" xmlns="http://www.w3.org/2000/svg" xmlns:xlink="http://www.w3.org/1999/xlink" x="0px" y="0px"
	 viewBox="0 0 30 30" style="enable-background:new 0 0 30 30;" xml:space="preserve">
<path id="Path_794" d="M28.8,4.3l-3.2-3.2c-1.5-1.5-4-1.5-5.6,0L1.4,19.7L0,28.4c-0.1,0.7,0.3,1.4,1.1,1.6c0.2,0,0.3,0,0.5,0
	l8.7-1.4L28.9,9.9C30.4,8.4,30.4,5.9,28.8,4.3C28.8,4.3,28.8,4.3,28.8,4.3z M11.7,18.3c0.5,0.5,1.3,0.5,1.8,0l7-7l1.7,1.7l-9.9,10
	v-2.5H9.5v-2.8H7.1l10-9.9l1.7,1.7l-7,7C11.2,16.9,11.2,17.7,11.7,18.3C11.7,18.2,11.7,18.2,11.7,18.3L11.7,18.3z M4.8,26.9
	l-1.7-1.7l0.8-4.3l1.1-1.1h2.5v2.8h2.8v2.5l-1.1,1.1L4.8,26.9z M27,8.1L24.2,11L19,5.8L21.9,3c0.5-0.5,1.4-0.5,1.9,0L27,6.1
	C27.6,6.6,27.6,7.5,27,8.1C27.1,8.1,27.1,8.1,27,8.1L27,8.1z"/>
</svg>
