<?xml version="1.0" encoding="utf-8"?>
<!-- Generator: Adobe Illustrator 25.2.0, SVG Export Plug-In . SVG Version: 6.00 Build 0)  -->
<svg version="1.1" id="Layer_1" xmlns="http://www.w3.org/2000/svg" xmlns:xlink="http://www.w3.org/1999/xlink" x="0px" y="0px"
	 viewBox="0 0 20 30" style="enable-background:new 0 0 20 30;" xml:space="preserve">
<path id="Path_817" d="M9.5,30c-0.9,0-1.7-0.3-2.2-1c-1.2-1.3-1.2-3.4,0-4.8c1.2-1.2,3.2-1.3,4.4-0.1c0,0,0.1,0.1,0.1,0.1
	c1.2,1.3,1.2,3.4,0,4.8C11.2,29.7,10.4,30,9.5,30z M7.1,20.6C7,20.4,7,20.3,6.9,20.1c-0.1-0.4-0.2-0.9-0.2-1.3
	c0-0.8,0.2-1.7,0.5-2.5C7.6,15.6,8,15,8.5,14.5c0.5-0.5,1.1-1,1.7-1.5c0.6-0.4,1.2-0.9,1.7-1.2c0.5-0.4,0.9-0.8,1.3-1.3
	c0.3-0.4,0.5-1,0.5-1.5c0-0.8-0.4-1.5-1-2C12,6.3,11,6,10.1,6C9.3,6,8.5,6.2,7.8,6.6C7.2,6.9,6.7,7.3,6.3,7.7
	C5.8,8.2,5.4,8.8,5.2,9.4L0,6.9c0.5-1.3,1.2-2.4,2.1-3.4C2.5,3,2.9,2.6,3.4,2.2C4,1.8,4.6,1.4,5.2,1.1c0.7-0.3,1.4-0.6,2.2-0.8
	C8.3,0.1,9.2,0,10.1,0c1.4,0,2.8,0.2,4.1,0.7c1.2,0.4,2.2,1,3.1,1.8c0.8,0.8,1.5,1.7,1.9,2.8c0.5,1,0.7,2.1,0.7,3.2
	c0,1-0.2,2.1-0.6,3c-0.3,0.8-0.8,1.5-1.4,2.2c-0.6,0.6-1.2,1.2-1.8,1.7c-0.7,0.5-1.3,1-1.9,1.5c-0.6,0.5-1,1-1.4,1.7
	c-0.4,0.6-0.6,1.4-0.6,2.1L7.1,20.6z"/>
</svg>
