<?xml version="1.0" encoding="utf-8"?>
<!-- Generator: Adobe Illustrator 25.2.0, SVG Export Plug-In . SVG Version: 6.00 Build 0)  -->
<svg version="1.1" id="Layer_1" xmlns="http://www.w3.org/2000/svg" xmlns:xlink="http://www.w3.org/1999/xlink" x="0px" y="0px"
	 viewBox="0 0 28 24" style="enable-background:new 0 0 28 24;" xml:space="preserve">
<g id="Group_73" transform="translate(-761.001 -943)">
	<path id="Path_702" d="M788.9,951.2l-4.1-5.4c-0.1-0.1-0.2-0.2-0.3-0.2h-1.7v-2.2c0-0.1,0-0.2-0.1-0.3c-0.1-0.1-0.2-0.1-0.3-0.1
		h-3.4c-0.2,0-0.4,0.2-0.4,0.4c0,0,0,0,0,0v2.2h-12.9c-0.1,0-0.3,0.1-0.3,0.2l-4.1,5.4c-0.1,0.1-0.1,0.3,0,0.5
		c0.1,0.2,0.2,0.3,0.4,0.3h2.3v14.6c0,0.2,0.2,0.4,0.4,0.4c0,0,0,0,0,0h21.7c0.2,0,0.4-0.2,0.4-0.4c0,0,0,0,0,0v-14.6h2.3
		c0.2,0,0.3-0.1,0.4-0.2C789,951.5,789,951.3,788.9,951.2z M782.8,966.1h-4.3v-11.6h4.3V966.1z M785.8,951c-0.2,0-0.4,0.2-0.4,0.4
		c0,0,0,0,0,0v14.6h-1.8v-12c0-0.2-0.2-0.4-0.4-0.4c0,0,0,0,0,0H778c-0.2,0-0.4,0.2-0.4,0.4c0,0,0,0,0,0v12h-13v-14.6
		c0-0.2-0.2-0.4-0.4-0.4c0,0,0,0,0,0h-1.8l3.4-4.4h13.1c0,0,0.1,0,0.1,0c0.2,0,0.4-0.2,0.4-0.4v-2.2h2.6v2.2c0,0.2,0.2,0.4,0.4,0.4
		c0,0,0,0,0,0h1.9l3.4,4.4L785.8,951z M772.8,953.7h-6c-0.2,0-0.4,0.2-0.4,0.4c0,0,0,0,0,0v5.3c0,0.2,0.2,0.4,0.4,0.4c0,0,0,0,0,0h6
		c0.2,0,0.4-0.2,0.4-0.4c0,0,0,0,0,0v-5.3C773.2,953.9,773,953.7,772.8,953.7L772.8,953.7z M772.3,959h-5.1v-4.4h5.1V959z"/>
</g>
</svg>
