<?xml version="1.0" encoding="utf-8"?>
<!-- Generator: Adobe Illustrator 25.2.0, SVG Export Plug-In . SVG Version: 6.00 Build 0)  -->
<svg version="1.1" id="Layer_1" xmlns="http://www.w3.org/2000/svg" xmlns:xlink="http://www.w3.org/1999/xlink" x="0px" y="0px"
	 viewBox="0 0 26.5 27.1" style="enable-background:new 0 0 26.5 27.1;" xml:space="preserve">
<g id="Group_69" transform="translate(-324.82 -942.22)">
	<path id="Path_719" d="M342.9,950.4h-10.4c-0.1,0-0.2,0-0.3-0.1c-0.1-0.1-0.1-0.2-0.1-0.3v-3.5c0-0.9,0.7-1.6,1.6-1.6h8
		c0.9,0,1.6,0.7,1.6,1.6v3.5C343.4,950.2,343.2,950.3,342.9,950.4z M332.9,949.5h9.6v-3c0-0.2-0.1-0.4-0.2-0.5
		c-0.1-0.1-0.3-0.2-0.5-0.2h-8c-0.2,0-0.4,0.1-0.5,0.2c-0.1,0.1-0.2,0.3-0.2,0.5L332.9,949.5z"/>
	<path id="Path_720" d="M330.8,957.7c-0.1,0-0.1,0-0.2,0c-0.1,0-0.1-0.1-0.2-0.2c0-0.1-0.1-0.1-0.1-0.2v-5.3c0-1.3,1.1-2.4,2.4-2.4
		c0,0,0,0,0,0h9.9c1.3,0,2.4,1.1,2.4,2.4v5.2c0,0.1,0,0.2-0.1,0.2c0,0.1-0.1,0.1-0.2,0.2c-0.1,0-0.2,0-0.2,0c-0.1,0-0.2,0-0.2-0.1
		c-2-1.7-4.2-3.1-6.6-4c-2.4,1.1-4.6,2.5-6.7,4.1C331,957.6,330.9,957.7,330.8,957.7L330.8,957.7z M332.8,950.4
		c-0.8,0-1.5,0.7-1.5,1.5c0,0,0,0,0,0v4.5c2-1.5,4.1-2.7,6.3-3.7c0.1,0,0.2,0,0.3,0c2.3,0.8,4.5,2.1,6.4,3.7v-4.4
		c0-0.9-0.7-1.5-1.5-1.6L332.8,950.4z"/>
	<path id="Path_721" d="M343.5,969.3c-0.1,0-0.2,0-0.2-0.1c-0.1-0.1-0.1-0.1-0.2-0.2c0-0.1,0-0.2,0-0.3c0-0.1,0.1-0.2,0.2-0.2
		c2.5-2,4-5,4.1-8.3c-1-1-2-1.9-3.1-2.8c-2-1.7-4.2-3.1-6.6-4c-3.6,1.7-6.9,4-9.8,6.8c0.2,3.2,1.8,6.2,4.4,8.1c0,0,0.1,0.1,0.1,0.1
		c0,0,0,0.1,0.1,0.2c0,0.1,0,0.1,0,0.2c0,0.1,0,0.1-0.1,0.2c0,0-0.1,0.1-0.1,0.1c0,0-0.1,0-0.2,0.1c-0.1,0-0.1,0-0.2,0
		c-0.1,0-0.1,0-0.2-0.1c-2.9-2.1-4.6-5.4-4.7-9c0-0.1,0-0.2,0.1-0.3c3-3,6.5-5.4,10.3-7.2c0.1,0,0.2,0,0.3,0c0.1,0,2.9,0.8,7.1,4.2
		c1.1,0.9,2.2,1.9,3.3,3c0.1,0.1,0.1,0.2,0.1,0.3c0,3.6-1.7,6.9-4.5,9.1C343.7,969.3,343.6,969.3,343.5,969.3L343.5,969.3z"/>
	<path id="Path_722" d="M337.7,965.8c-0.1,0-0.2,0-0.3-0.1c-0.1-0.1-0.1-0.2-0.1-0.3V953c0-0.1,0-0.2,0.1-0.3c0.2-0.2,0.4-0.2,0.6,0
		c0,0,0,0,0,0c0.1,0.1,0.1,0.2,0.1,0.3v12.3c0,0.1,0,0.2-0.1,0.3C337.9,965.7,337.8,965.8,337.7,965.8z"/>
	<path id="Path_723" d="M337.8,945.6c-0.1,0-0.2,0-0.3-0.1c-0.1-0.1-0.1-0.2-0.1-0.3v-2.5c0-0.1,0-0.2,0.1-0.3
		c0.2-0.2,0.4-0.2,0.6,0c0,0,0,0,0,0c0.1,0.1,0.1,0.2,0.1,0.3v2.5c0,0.1,0,0.2-0.1,0.3C338,945.6,337.9,945.6,337.8,945.6z"/>
	<path id="Path_724" d="M348.3,969.3c-0.6,0-1.2-0.3-1.6-0.7c-0.4-0.5-1.2-0.7-1.7-0.2c-0.1,0.1-0.2,0.1-0.2,0.2
		c-0.4,0.5-1,0.7-1.6,0.7c-0.6,0-1.2-0.3-1.6-0.7c-0.4-0.5-1.2-0.7-1.8-0.2c-0.1,0.1-0.2,0.1-0.2,0.2c-0.4,0.5-1,0.7-1.6,0.7
		c-0.6,0-1.2-0.3-1.6-0.7c-0.2-0.3-0.6-0.5-1-0.5c-0.4,0-0.8,0.2-1,0.5c-0.4,0.5-1,0.7-1.6,0.7c-0.6,0-1.2-0.3-1.6-0.7
		c-0.4-0.5-1.2-0.7-1.7-0.2c-0.1,0.1-0.2,0.1-0.2,0.2c-0.8,0.9-2.1,1-3,0.2c-0.1-0.1-0.1-0.1-0.2-0.2c-0.2-0.3-0.6-0.5-1-0.5
		c-0.1,0-0.2,0-0.3-0.1c-0.2-0.2-0.2-0.4,0-0.6c0,0,0,0,0,0c0.1-0.1,0.2-0.1,0.3-0.1c0.6,0,1.2,0.3,1.6,0.7c0.2,0.3,0.6,0.5,1,0.5
		c0.4,0,0.8-0.2,1-0.5c0.8-0.9,2.1-1,2.9-0.2c0.1,0.1,0.1,0.1,0.2,0.2c0.2,0.3,0.6,0.5,1,0.5c0.4,0,0.8-0.2,1-0.5
		c0.4-0.5,1-0.7,1.6-0.7c0.6,0,1.2,0.3,1.6,0.7c0.2,0.3,0.6,0.5,1,0.5c0.4,0,0.8-0.2,1-0.5c0.8-0.9,2.1-1,2.9-0.2
		c0.1,0.1,0.1,0.1,0.2,0.2c0.2,0.3,0.6,0.5,1,0.5c0.4,0,0.8-0.2,1-0.5c0.7-0.9,2.1-1,2.9-0.2c0.1,0.1,0.2,0.1,0.2,0.2
		c0.4,0.5,1.2,0.7,1.8,0.2c0.1-0.1,0.2-0.1,0.2-0.2c0.4-0.5,1-0.7,1.6-0.7c0.1,0,0.2,0,0.3,0.1c0.2,0.2,0.2,0.4,0,0.6
		c-0.1,0.1-0.2,0.1-0.3,0.1c-0.4,0-0.8,0.2-1,0.5C349.5,969.1,348.9,969.3,348.3,969.3z"/>
</g>
</svg>
