<?xml version="1.0" encoding="utf-8"?>
<!-- Generator: Adobe Illustrator 25.2.0, SVG Export Plug-In . SVG Version: 6.00 Build 0)  -->
<svg version="1.1" id="Layer_1" xmlns="http://www.w3.org/2000/svg" xmlns:xlink="http://www.w3.org/1999/xlink" x="0px" y="0px"
	 viewBox="0 0 17.8 26.7" style="enable-background:new 0 0 17.8 26.7;" xml:space="preserve">
<g id="Group_80" transform="translate(-546.65 -1055.606)">
	<path id="Path_751" d="M563.5,1072L563.5,1072c-0.3,0-0.5-0.2-0.5-0.4c0-0.2,0.2-0.4,0.4-0.4c0,0,0,0,0,0h0.1c0.1,0,0.2,0,0.3,0.1
		c0.2,0.2,0.2,0.4,0,0.6c0,0,0,0,0,0C563.7,1071.9,563.6,1072,563.5,1072z"/>
	<path id="Path_752" d="M556.3,1082.3h-7c-0.3,0-0.7-0.1-1-0.2c-0.6-0.3-1.2-0.8-1.4-1.4c-0.1-0.3-0.2-0.7-0.2-1v-7.9
		c0-0.2,0.2-0.4,0.4-0.4c0,0,0,0,0,0h3.9c0.1,0,0.2,0,0.3,0.1c0.1,0.1,0.1,0.2,0.1,0.3v2.8c0,0.1,0,0.2-0.1,0.3
		c-3,3.4-3.7,4.2-3.8,4.4c0,0.3,0,0.6,0.1,0.9c0.2,0.8,0.9,1.3,1.7,1.3h3.1c0.3-0.5,0.9-1.8,1.7-3.4c0-0.1,0.1-0.1,0.2-0.2
		c0.1,0,0.1-0.1,0.2-0.1h1.8c0.1,0,0.2,0,0.3,0c0.6,0.1,1.1,0.4,1.4,0.8c0.3,0.4,0.5,1,0.5,1.6
		C558.5,1081.4,557.5,1082.3,556.3,1082.3L556.3,1082.3z M553.4,1081.4h2.9c0.8,0,1.4-0.5,1.5-1.3c0-0.4-0.1-0.7-0.3-1
		c-0.2-0.3-0.5-0.5-0.9-0.5h0c0,0-0.1,0-0.1,0h-1.6C554.2,1079.8,553.7,1080.8,553.4,1081.4L553.4,1081.4z M547.5,1072.1v5.7
		c0.5-0.7,1.5-1.7,3.1-3.5v-2.2L547.5,1072.1z"/>
	<path id="Path_753" d="M558.8,1066.3c-0.1,0-0.2,0-0.2-0.1c-0.1,0-0.1-0.1-0.1-0.2c0-0.1,0-0.2,0-0.2c0-0.1,0-0.2,0.1-0.2l0.1-0.2
		c0,0,0.1-0.1,0.1-0.1c0.1,0,0.1,0,0.2,0h0.2c0.1,0,0.2,0,0.3,0.1c0.1,0.1,0.1,0.1,0.1,0.2c0,0.1,0,0.2,0,0.3c0,0.1-0.1,0.2-0.2,0.2
		l-0.3,0.2C558.9,1066.3,558.9,1066.3,558.8,1066.3L558.8,1066.3z"/>
	<path id="Path_754" d="M563.4,1072h-3c-0.1,0-0.2,0-0.3-0.1c-0.2-0.2-0.2-0.4,0-0.6c0.1-0.1,0.2-0.1,0.3-0.1h3
		c0.2,0,0.4,0.2,0.4,0.4C563.9,1071.8,563.7,1072,563.4,1072C563.4,1072,563.4,1072,563.4,1072L563.4,1072z"/>
	<path id="Path_755" d="M564,1072h-0.5c-0.2,0-0.4-0.2-0.4-0.4c0-0.1,0-0.2,0.1-0.3c0.1-0.1,0.2-0.1,0.3-0.1h0.1v-1.6
		c0-1.3-0.6-2.4-1.7-3c-0.1,0-0.1-0.1-0.2-0.1c-0.4-0.2-0.8-0.3-1.2-0.3c-0.1,0-0.2,0-0.3-0.1c-0.1-0.1-0.1-0.2-0.1-0.3
		c0-0.2,0.2-0.4,0.4-0.4c0,0,0,0,0,0c0.5,0,1.1,0.1,1.6,0.3c0.1,0,0.2,0.1,0.2,0.1c1.4,0.8,2.2,2.2,2.2,3.8v2c0,0.1,0,0.2-0.1,0.3
		C564.2,1071.9,564.1,1072,564,1072L564,1072z"/>
	<path id="Path_756" d="M547.1,1072.1c-0.2,0-0.4-0.2-0.4-0.4v-2.2c-0.1-2.3,1.7-4.2,4-4.2h8.3c0.1,0,0.2,0,0.2,0.1
		c0.1,0,0.1,0.1,0.2,0.2c0,0.1,0,0.2,0,0.2c0,0.1,0,0.2-0.1,0.2l-0.2,0.2c0,0-0.1,0.1-0.1,0.1c0,0-0.1,0-0.2,0c-0.1,0-0.1,0-0.2,0
		c-0.1,0-0.1-0.1-0.2-0.1c0,0,0,0,0-0.1h-7.8c-1.8,0.1-3.2,1.6-3.2,3.4v2.2c0,0.1,0,0.1,0,0.2c0,0.1,0,0.1-0.1,0.1
		c0,0-0.1,0.1-0.1,0.1C547.2,1072.1,547.1,1072.1,547.1,1072.1z"/>
	<path id="Path_757" d="M551,1074.8c-0.1,0-0.1,0-0.2,0c-0.1,0-0.1-0.1-0.2-0.2c0-0.1-0.1-0.2-0.1-0.2v-2.7c0-0.1,0-0.2,0.1-0.3
		c0.1-0.1,0.2-0.1,0.3-0.1c0.1,0,0.2,0,0.3,0.1c0.1,0.1,0.1,0.2,0.1,0.3v1.6c2.5-2.8,5.4-5.9,6.8-7.4c0,0,0.1-0.1,0.1-0.1
		c0,0,0.1,0,0.2-0.1c0.1,0,0.1,0,0.2,0c0.1,0,0.1,0.1,0.1,0.1c0,0,0.1,0.1,0.1,0.1c0,0.1,0,0.1,0,0.2c0,0.1,0,0.1,0,0.2
		c0,0.1-0.1,0.1-0.1,0.1c-1.5,1.7-4.8,5.3-7.5,8.3c0,0-0.1,0.1-0.1,0.1C551.1,1074.8,551.1,1074.8,551,1074.8L551,1074.8z"/>
	<path id="Path_758" d="M558.9,1066.1h-0.6c-0.2,0-0.4-0.2-0.4-0.4c0,0,0,0,0,0c0-0.1,0-0.2,0.1-0.3c0.1-0.1,0.2-0.1,0.3-0.1h0.6
		c0.1,0,0.2,0,0.2,0.1c0.1,0.1,0.1,0.1,0.2,0.2c0,0.1,0,0.2,0,0.2c0,0.1-0.1,0.2-0.1,0.2l0,0C559.1,1066.1,559,1066.1,558.9,1066.1
		L558.9,1066.1z"/>
	<path id="Path_759" d="M558.8,1066.3c-0.1,0-0.2,0-0.2-0.1c-0.1,0-0.1-0.1-0.1-0.2c0-0.1,0-0.2,0-0.2c0-0.1,0-0.2,0.1-0.2l0.1-0.2
		c0,0,0.1-0.1,0.1-0.1c0.1,0,0.1,0,0.2,0h0.2c0.1,0,0.2,0,0.3,0.1c0.1,0.1,0.1,0.1,0.1,0.2c0,0.1,0,0.2,0,0.3c0,0.1-0.1,0.2-0.2,0.2
		l-0.3,0.2C558.9,1066.3,558.9,1066.3,558.8,1066.3L558.8,1066.3z"/>
	<path id="Path_760" d="M563.5,1072L563.5,1072c-0.3,0-0.5-0.2-0.5-0.4c0-0.2,0.2-0.4,0.4-0.4c0,0,0,0,0,0h0.1c0.1,0,0.2,0,0.3,0.1
		c0.2,0.2,0.2,0.4,0,0.6c0,0,0,0,0,0C563.7,1071.9,563.6,1072,563.5,1072z"/>
	<path id="Path_761" d="M552.7,1082.2h-3.4c-1.2,0-2.2-0.8-2.5-1.9c-0.1-0.5-0.2-0.9-0.1-1.4c0-0.2,0.1-0.3,4-4.7
		c2.7-3,6-6.6,7.5-8.3l0.3-0.3c0,0,0-0.1,0.1-0.1c0,0,0.1-0.1,0.1-0.1l0,0c0.1-0.1,0.2-0.1,0.3-0.1h1.5c0.1,0,0.1,0,0.2,0.1
		c0.1,0,0.1,0.1,0.2,0.2c0.1,0.2,0.2,0.3-0.9,2.8c-1.2,2.7-3.4,7-5,10.1c-1,2.1-1.8,3.6-1.8,3.6c0,0.1-0.1,0.1-0.2,0.2
		C552.9,1082.2,552.8,1082.2,552.7,1082.2z M547.5,1079.1c0,0.3,0,0.6,0.1,0.9c0.2,0.8,0.9,1.3,1.7,1.3h3.1c0.3-0.5,0.9-1.8,1.7-3.4
		c1.6-3.1,3.7-7.4,5-10.1c0.4-0.9,0.7-1.5,0.8-1.8h-0.8c0,0,0,0,0,0l-0.3,0.3c-1.5,1.7-4.8,5.3-7.5,8.3
		C548.3,1078.1,547.7,1078.9,547.5,1079.1z"/>
	<path id="Path_762" d="M556,1064.4c-0.9,0-1.7-0.3-2.5-0.7c-0.7-0.5-1.3-1.2-1.6-2c-0.3-0.8-0.4-1.7-0.2-2.6
		c0.2-0.9,0.6-1.6,1.2-2.3c0.6-0.6,1.4-1,2.3-1.2c1.8-0.3,3.5,0.4,4.5,1.9c1.4,2,0.8,4.8-1.2,6.1
		C557.7,1064.2,556.9,1064.5,556,1064.4z M556,1056.5c-1.4,0-2.8,0.9-3.3,2.2c-0.3,0.7-0.3,1.4-0.2,2.1c0.4,1.9,2.3,3.2,4.2,2.8
		c0.2,0,0.4-0.1,0.7-0.2c1.3-0.6,2.2-1.9,2.2-3.3c0-0.9-0.4-1.9-1-2.5C557.9,1056.8,557,1056.5,556,1056.5L556,1056.5z"/>
	<path id="Path_763" d="M560.5,1080.6h-2.2c-0.1,0-0.2,0-0.3-0.1c-0.1-0.1-0.1-0.2-0.1-0.3c0-0.1,0-0.2,0.1-0.3
		c0.1-0.1,0.2-0.1,0.3-0.1h1.8l-0.1-8.2c0-0.1,0-0.1,0-0.2c0-0.1,0.1-0.2,0.2-0.2c0.1,0,0.1,0,0.2,0h3c0.2,0,0.4,0.2,0.4,0.4
		c0,0,0,0,0,0v8.6c0,0.1,0,0.2-0.1,0.3c-0.1,0.1-0.2,0.1-0.3,0.1H560.5z M560.9,1079.8h2.1v-7.8h-2.2L560.9,1079.8z"/>
	<path id="Path_764" d="M560.4,1072c-0.1,0-0.2,0-0.3-0.1c-0.1-0.1-0.1-0.2-0.1-0.3v-1.8c0-0.1,0-0.2,0.1-0.3
		c0.1-0.1,0.2-0.1,0.3-0.1c0.1,0,0.2,0,0.3,0.1c0.1,0.1,0.1,0.2,0.1,0.3v1.8c0,0.1,0,0.2-0.1,0.3
		C560.7,1071.9,560.6,1072,560.4,1072z"/>
	<path id="Path_765" d="M550.5,1072c-0.2,0-0.4-0.2-0.4-0.4c0,0,0,0,0,0v-1.8c0-0.2,0.2-0.4,0.4-0.4c0.2,0,0.4,0.2,0.4,0.4
		c0,0,0,0,0,0v1.8C550.9,1071.8,550.7,1072,550.5,1072C550.5,1072,550.5,1072,550.5,1072z"/>
</g>
</svg>
