<?xml version="1.0" encoding="utf-8"?>
<!-- Generator: Adobe Illustrator 25.2.0, SVG Export Plug-In . SVG Version: 6.00 Build 0)  -->
<svg version="1.1" id="Layer_1" xmlns="http://www.w3.org/2000/svg" xmlns:xlink="http://www.w3.org/1999/xlink" x="0px" y="0px"
	 viewBox="0 0 26.9 26.8" style="enable-background:new 0 0 26.9 26.8;" xml:space="preserve">
<g id="Group_76" transform="translate(-99.714 -1056.412)">
	<path id="Path_741" d="M125.4,1083.2h-4.3c-0.2,0-0.3,0-0.5-0.1c-0.1-0.1-0.3-0.1-0.4-0.3l-9.2-9.2c-4.7,1.4-9.6-1.2-11.1-5.8
		s1.2-9.6,5.8-11.1s9.6,1.2,11.1,5.8c0.5,1.6,0.5,3.4,0.1,5l1.7,1.8c0.1,0.1,0.2,0.2,0.3,0.4c0.1,0.1,0.1,0.3,0.1,0.4v0.1l-0.2,1.3
		l1.1-0.4c0,0,0.1,0,0.2,0c0.2,0,0.3,0,0.5,0.1c0.2,0.1,0.3,0.2,0.4,0.3c0.1,0.1,0.2,0.3,0.2,0.4c0.1,0.2,0.1,0.3,0,0.5
		c0,0,0,0,0,0.1l-0.3,1l1.2-0.2c0,0,0.1,0,0.1,0c0.3,0,0.5,0.1,0.7,0.3c0.2,0.2,0.3,0.4,0.3,0.7l0.1,1.2l0.7-0.1
		c0.2,0,0.4,0,0.5,0.1c0.2,0.1,0.3,0.2,0.5,0.3l1.1,1.1c0.1,0.1,0.2,0.2,0.3,0.4c0.1,0.1,0.1,0.3,0.1,0.4v4.3c0,0.3-0.1,0.6-0.4,0.8
		C126,1083.1,125.7,1083.2,125.4,1083.2z M111.2,1072.8c0.1,0,0.2,0,0.3,0.1l9.4,9.4c0,0,0.1,0.1,0.1,0.1c0,0,0.1,0,0.1,0h4.3
		c0,0,0.1,0,0.1,0c0,0,0.1,0,0.1-0.1c0,0,0.1-0.1,0.1-0.1c0,0,0-0.1,0-0.1v-4.3c0-0.1,0-0.2-0.1-0.2l-1.1-1.1c0,0-0.1-0.1-0.1-0.1
		c0,0-0.1,0-0.1,0l-1.2,0.1c-0.1,0-0.1,0-0.2,0c-0.1,0-0.1,0-0.1-0.1c-0.1-0.1-0.1-0.2-0.2-0.3l-0.2-1.6c0-0.1,0-0.1-0.1-0.2
		c0-0.1-0.1-0.1-0.2-0.1l-1.8,0.3c-0.1,0-0.1,0-0.2,0c-0.1,0-0.1-0.1-0.2-0.1c0-0.1-0.1-0.1-0.1-0.2c0-0.1,0-0.1,0-0.2l0.4-1.6
		c0-0.1,0-0.2-0.1-0.2c-0.1-0.1-0.1-0.1-0.2-0.1l-1.7,0.6c-0.1,0-0.1,0-0.2,0c-0.1,0-0.1,0-0.2-0.1c-0.1,0-0.1-0.1-0.1-0.2
		c0-0.1,0-0.1,0-0.2l0.4-2c0-0.1,0-0.2-0.1-0.2l-1.9-1.9c-0.1-0.1-0.1-0.1-0.1-0.2c0-0.1,0-0.2,0-0.2c1.3-4.1-0.9-8.6-5.1-9.9
		c-2.8-0.9-5.9-0.2-8,1.9c-3.1,3.1-3.1,8.1,0,11.2c2.1,2.1,5.2,2.8,8,1.9C111.2,1072.8,111.2,1072.8,111.2,1072.8L111.2,1072.8z
		 M106.5,1065.8c-0.4,0-0.9-0.1-1.3-0.3c-0.4-0.2-0.7-0.5-1-0.9c-0.2-0.4-0.4-0.8-0.4-1.2c0-0.4,0-0.9,0.2-1.3
		c0.3-0.8,1.1-1.4,2-1.6c0.4-0.1,0.9-0.1,1.3,0.1c0.4,0.1,0.8,0.4,1.1,0.7l0,0c0.4,0.4,0.6,0.9,0.7,1.4c0.3,1.5-0.7,2.9-2.1,3.2
		C106.9,1065.8,106.7,1065.8,106.5,1065.8L106.5,1065.8z M106.5,1061.3c-0.9,0-1.6,0.6-1.8,1.5c-0.1,0.4,0,0.9,0.2,1.2
		c0.4,0.8,1.3,1.1,2.2,0.9c0.4-0.1,0.8-0.4,1-0.7c0.2-0.4,0.3-0.8,0.3-1.2c0-0.4-0.2-0.8-0.5-1.1
		C107.5,1061.5,107,1061.3,106.5,1061.3z"/>
</g>
</svg>
