<?xml version="1.0" encoding="utf-8"?>
<!-- Generator: Adobe Illustrator 25.2.0, SVG Export Plug-In . SVG Version: 6.00 Build 0)  -->
<svg version="1.1" id="Layer_1" xmlns="http://www.w3.org/2000/svg" xmlns:xlink="http://www.w3.org/1999/xlink" x="0px" y="0px"
	 viewBox="0 0 30 19.3" style="enable-background:new 0 0 30 19.3;" xml:space="preserve">
<path id="Path_796" d="M27.5,0h-25C1.1,0,0,1.1,0,2.4c0,0,0,0,0,0v14.5c0,1.3,1.1,2.4,2.4,2.4c0,0,0,0,0.1,0h25
	c1.4,0,2.5-1.1,2.5-2.4V2.4C30,1.1,28.8,0,27.5,0z M27.9,16.9c0,0.2-0.2,0.4-0.4,0.4h0h-25c-0.2,0-0.4-0.1-0.4-0.3c0,0,0,0,0-0.1
	V2.4C2.1,2.2,2.3,2,2.5,2c0,0,0,0,0,0h25c0.2,0,0.4,0.2,0.4,0.4V16.9z M8.8,10.3V8.9c0-0.3-0.3-0.6-0.6-0.6H6.8
	c-0.3,0-0.6,0.3-0.6,0.6v1.4c0,0.3,0.3,0.6,0.6,0.6c0,0,0,0,0,0h1.5C8.6,10.9,8.8,10.7,8.8,10.3L8.8,10.3z M13.8,10.3V8.9
	c0-0.3-0.3-0.6-0.6-0.6h-1.5c-0.3,0-0.6,0.3-0.6,0.6v1.4c0,0.3,0.3,0.6,0.6,0.6c0,0,0,0,0,0h1.5C13.6,11,13.8,10.7,13.8,10.3
	L13.8,10.3z M18.8,10.3V8.9c0-0.3-0.3-0.6-0.6-0.6h-1.5c-0.3,0-0.6,0.3-0.6,0.6v1.4c0,0.3,0.3,0.6,0.6,0.6c0,0,0,0,0,0h1.5
	C18.6,11,18.8,10.7,18.8,10.3L18.8,10.3z M23.8,10.3V8.9c0-0.3-0.3-0.6-0.6-0.6h-1.5c-0.3,0-0.6,0.3-0.6,0.6v1.4
	c0,0.3,0.3,0.6,0.6,0.6c0,0,0,0,0,0h1.5C23.6,11,23.8,10.7,23.8,10.3L23.8,10.3z M6.3,14.5v-1.4c0-0.3-0.3-0.6-0.6-0.6H4.3
	c-0.3,0-0.6,0.3-0.6,0.6v1.4c0,0.3,0.3,0.6,0.6,0.6c0,0,0,0,0,0h1.5C6.1,15.1,6.3,14.8,6.3,14.5L6.3,14.5z M26.3,14.5v-1.4
	c0-0.3-0.3-0.6-0.6-0.6h-1.5c-0.3,0-0.6,0.3-0.6,0.6v1.4c0,0.3,0.3,0.6,0.6,0.6c0,0,0,0,0,0h1.5C26.1,15.1,26.3,14.8,26.3,14.5
	C26.4,14.5,26.4,14.5,26.3,14.5L26.3,14.5z M6.3,6.2V4.8c0-0.3-0.3-0.6-0.6-0.6H4.3c-0.3,0-0.6,0.3-0.6,0.6v1.4
	c0,0.3,0.3,0.6,0.6,0.6c0,0,0,0,0,0h1.5C6.1,6.8,6.3,6.6,6.3,6.2L6.3,6.2z M11.3,6.2V4.8c0-0.3-0.3-0.6-0.6-0.6H9.3
	c-0.3,0-0.6,0.3-0.6,0.6v1.4c0,0.3,0.2,0.6,0.6,0.6c0,0,0,0,0,0h1.5C11.1,6.8,11.3,6.6,11.3,6.2C11.4,6.2,11.4,6.2,11.3,6.2
	L11.3,6.2z M16.3,6.2V4.8c0-0.3-0.3-0.6-0.6-0.6h-1.5c-0.3,0-0.6,0.3-0.6,0.6v1.4c0,0.3,0.2,0.6,0.6,0.6c0,0,0,0,0,0h1.5
	C16.1,6.8,16.3,6.6,16.3,6.2C16.3,6.2,16.3,6.2,16.3,6.2L16.3,6.2z M21.3,6.2V4.8c0-0.3-0.3-0.6-0.6-0.6h-1.5
	c-0.3,0-0.6,0.3-0.6,0.6v1.4c0,0.3,0.3,0.6,0.6,0.6c0,0,0,0,0,0h1.5C21.1,6.8,21.3,6.6,21.3,6.2C21.4,6.2,21.4,6.2,21.3,6.2
	L21.3,6.2z M26.3,6.2V4.8c0-0.3-0.3-0.6-0.6-0.6h-1.5c-0.3,0-0.6,0.3-0.6,0.6v1.4c0,0.3,0.2,0.6,0.6,0.6c0,0,0,0,0,0h1.5
	C26,6.8,26.3,6.6,26.3,6.2C26.4,6.2,26.4,6.2,26.3,6.2L26.3,6.2z M21.2,14.2v-0.8c0-0.3-0.3-0.6-0.6-0.6H9.4c-0.3,0-0.6,0.3-0.6,0.6
	v0.8c0,0.3,0.2,0.6,0.6,0.6c0,0,0,0,0,0h11.2C20.9,14.8,21.2,14.5,21.2,14.2C21.2,14.2,21.2,14.2,21.2,14.2L21.2,14.2z"/>
</svg>
