<?xml version="1.0" encoding="utf-8"?>
<!-- Generator: Adobe Illustrator 25.2.0, SVG Export Plug-In . SVG Version: 6.00 Build 0)  -->
<svg version="1.1" id="Layer_1" xmlns="http://www.w3.org/2000/svg" xmlns:xlink="http://www.w3.org/1999/xlink" x="0px" y="0px"
	 viewBox="0 0 26.2 27.1" style="enable-background:new 0 0 26.2 27.1;" xml:space="preserve">
<g id="Group_78" transform="translate(-324.89 -1056.247)">
	<path id="Path_743" d="M332.3,1074.6H327c-0.6,0-1.2-0.4-1.4-1l-0.7-1.9c0-0.1,0-0.1,0-0.2c0-0.1,0.1-0.3,0.2-0.3
		c0.1,0,0.1,0,0.2-0.1h8.7c0.1,0,0.1,0,0.2,0.1c0.1,0,0.1,0.1,0.2,0.1c0,0.1,0.1,0.1,0.1,0.2c0,0.1,0,0.1,0,0.2l-0.7,1.9
		C333.5,1074.2,332.9,1074.6,332.3,1074.6L332.3,1074.6z M325.9,1072l0.5,1.4c0.1,0.3,0.3,0.4,0.6,0.4h5.3c0.1,0,0.3,0,0.4-0.1
		c0.1-0.1,0.2-0.2,0.2-0.3l0.5-1.4H325.9z"/>
	<path id="Path_744" d="M325.8,1071.9c-0.1,0-0.1,0-0.2-0.1c-0.1,0-0.1-0.1-0.2-0.2c0-0.1-0.1-0.1-0.1-0.2c0-0.1,0-0.1,0-0.2
		l3.8-7.9c0-0.1,0.1-0.1,0.2-0.2c0.1,0,0.1-0.1,0.2-0.1l0,0c0.1,0,0.2,0,0.2,0.1c0.1,0,0.1,0.1,0.2,0.2l3.8,7.9c0,0.1,0,0.1,0.1,0.2
		c0,0.1,0,0.1,0,0.2c0,0.1,0,0.1-0.1,0.1c0,0-0.1,0.1-0.1,0.1c-0.1,0-0.1,0-0.2,0c-0.1,0-0.1,0-0.2,0c-0.1,0-0.1-0.1-0.1-0.1
		c0,0-0.1-0.1-0.1-0.1l-3.4-7.2l-3.4,7.2c0,0.1-0.1,0.1-0.2,0.2C326,1071.8,325.9,1071.9,325.8,1071.9z"/>
	<path id="Path_745" d="M349,1074.6h-5.3c-0.3,0-0.6-0.1-0.9-0.3c-0.2-0.2-0.4-0.4-0.5-0.7l-0.7-1.9c0-0.1,0-0.1,0-0.2
		c0-0.1,0-0.1,0.1-0.2c0-0.1,0.1-0.1,0.2-0.1c0.1,0,0.1,0,0.2-0.1h8.7c0.1,0,0.1,0,0.2,0.1c0.1,0.1,0.2,0.2,0.2,0.3
		c0,0.1,0,0.1,0,0.2l-0.7,1.9c-0.1,0.3-0.3,0.5-0.6,0.7C349.6,1074.5,349.3,1074.6,349,1074.6L349,1074.6z M342.6,1072l0.5,1.4
		c0,0.1,0.1,0.2,0.2,0.3c0.1,0.1,0.2,0.1,0.4,0.1h5.3c0.3,0,0.5-0.2,0.6-0.4l0.5-1.4H342.6z"/>
	<path id="Path_746" d="M342.5,1071.9c-0.1,0-0.1,0-0.2-0.1c-0.1-0.1-0.2-0.2-0.2-0.3c0-0.1,0-0.1,0-0.2l3.8-7.9
		c0-0.1,0.1-0.1,0.2-0.2c0.1,0,0.1-0.1,0.2-0.1l0,0c0.1,0,0.2,0,0.2,0.1c0.1,0,0.1,0.1,0.2,0.2l3.8,7.9c0.1,0.1,0.1,0.2,0,0.3
		c0,0.1-0.1,0.2-0.2,0.2c-0.1,0-0.2,0.1-0.3,0c-0.1,0-0.2-0.1-0.2-0.2l-3.4-7.2l-3.4,7.2c0,0.1-0.1,0.1-0.2,0.2
		C342.6,1071.8,342.6,1071.9,342.5,1071.9z"/>
	<path id="Path_747" d="M338.8,1080.1h-1.6c-0.1,0-0.2,0-0.3-0.1c-0.1-0.1-0.1-0.2-0.1-0.3v-16h-9.7c-0.2,0-0.3,0-0.5-0.1
		c-0.2-0.1-0.3-0.2-0.4-0.3c-0.1-0.1-0.2-0.2-0.3-0.4c-0.1-0.3-0.1-0.7,0-1c0.1-0.2,0.2-0.3,0.3-0.4c0.1-0.1,0.3-0.2,0.4-0.3
		c0.2-0.1,0.3-0.1,0.5-0.1h9.7v-1.7c-0.3-0.2-0.5-0.6-0.6-0.9c-0.1-0.4-0.1-0.7,0-1.1c0.1-0.3,0.3-0.6,0.6-0.8
		c0.3-0.2,0.6-0.3,1-0.4c0.4,0,0.7,0.1,1,0.3c0.6,0.4,1,1.1,0.8,1.8c-0.1,0.4-0.2,0.7-0.5,0.9v1.9h9.6c0.2,0,0.3,0,0.5,0.1
		c0.2,0.1,0.3,0.1,0.4,0.3c0.1,0.1,0.2,0.3,0.3,0.4c0.1,0.3,0.1,0.7,0,1c-0.1,0.2-0.2,0.3-0.3,0.4c-0.1,0.1-0.3,0.2-0.4,0.3
		c-0.2,0.1-0.3,0.1-0.5,0.1h-9.6v16c0,0.1,0,0.2-0.1,0.3C339.1,1080,339,1080.1,338.8,1080.1z M337.6,1079.2h0.8v-16
		c0-0.2,0.2-0.4,0.4-0.4c0,0,0,0,0,0h10.1c0.1,0,0.1,0,0.2,0c0.1,0,0.1,0,0.1-0.1c0,0,0.1-0.1,0.1-0.1c0,0,0-0.1,0-0.2
		c0-0.1,0-0.1,0-0.2c0-0.1-0.1-0.2-0.2-0.2c0,0-0.1,0-0.2,0h-10.1c-0.2,0-0.4-0.2-0.4-0.4c0,0,0,0,0,0v-2.5c0-0.1,0-0.1,0-0.2
		c0-0.1,0.1-0.1,0.1-0.1c0.2-0.1,0.3-0.3,0.3-0.5c0.1-0.2,0-0.4,0-0.6c-0.1-0.2-0.2-0.3-0.4-0.5c-0.2-0.1-0.4-0.2-0.6-0.2
		c-0.2,0-0.4,0.1-0.6,0.2c-0.2,0.1-0.3,0.3-0.3,0.5c-0.1,0.2,0,0.4,0,0.6c0.1,0.2,0.2,0.4,0.4,0.5c0.1,0,0.1,0.1,0.1,0.2
		c0,0.1,0.1,0.1,0,0.2v2.4c0,0.2-0.2,0.4-0.4,0.4c0,0,0,0,0,0h-10.1c-0.1,0-0.2,0.1-0.3,0.1c-0.1,0.2-0.1,0.4,0,0.5
		c0.1,0.1,0.2,0.1,0.3,0.1h10.1c0.2,0,0.4,0.2,0.4,0.4c0,0,0,0,0,0V1079.2z"/>
	<path id="Path_748" d="M342.6,1081.7h-9.3c-0.2,0-0.4-0.2-0.4-0.4v-0.6c0-0.2,0-0.4,0.1-0.6c0.1-0.2,0.2-0.4,0.3-0.5
		c0.1-0.1,0.3-0.3,0.5-0.3c0.2-0.1,0.4-0.1,0.6-0.1h7.2c0.8,0,1.5,0.7,1.5,1.5v0.6c0,0.1,0,0.1,0,0.2c0,0.1-0.1,0.2-0.2,0.2
		C342.8,1081.7,342.7,1081.7,342.6,1081.7z M333.7,1080.9h8.5v-0.1c0-0.4-0.3-0.6-0.6-0.7c0,0,0,0,0,0h-7.2c-0.4,0-0.7,0.3-0.7,0.6
		c0,0,0,0,0,0V1080.9z"/>
	<path id="Path_749" d="M344.2,1083.3h-12.4c-0.2,0-0.4-0.2-0.4-0.4c0,0,0,0,0,0v-0.4c0-0.4,0.2-0.9,0.5-1.2
		c0.3-0.3,0.7-0.5,1.2-0.5h9.9c0.9,0,1.7,0.7,1.7,1.7v0.4c0,0.1,0,0.2-0.1,0.3C344.4,1083.3,344.3,1083.3,344.2,1083.3L344.2,1083.3
		z M332.2,1082.5h11.5c0-0.2-0.1-0.4-0.2-0.6c-0.2-0.2-0.4-0.2-0.6-0.2H333c-0.2,0-0.4,0.1-0.6,0.2
		C332.3,1082.1,332.2,1082.3,332.2,1082.5L332.2,1082.5z"/>
</g>
</svg>
