<?xml version="1.0" encoding="utf-8"?>
<!-- Generator: Adobe Illustrator 25.2.0, SVG Export Plug-In . SVG Version: 6.00 Build 0)  -->
<svg version="1.1" id="Layer_1" xmlns="http://www.w3.org/2000/svg" xmlns:xlink="http://www.w3.org/1999/xlink" x="0px" y="0px"
	 viewBox="0 0 27.7 30" style="enable-background:new 0 0 27.7 30;" xml:space="preserve">
<style type="text/css">
	.st0{fill-rule:evenodd;clip-rule:evenodd;}
</style>
<path id="Path_801" class="st0" d="M19.6,9.2v2.3H8.1V9.2c0-3.2,2.7-5.7,5.8-5.7C17,3.6,19.6,6.1,19.6,9.2z M4.6,11.5V9.2
	C4.6,4.1,8.8,0,13.9,0c5.1,0,9.2,4.1,9.2,9.2v2.3h2.3c1.3,0,2.3,1,2.3,2.3v13.8c0,1.3-1,2.3-2.3,2.3H2.3C1,30,0,29,0,27.7V13.8
	c0-1.3,1-2.3,2.3-2.3L4.6,11.5z M23.1,15H3.5v11.5h20.8V15H23.1z"/>
</svg>
