<?xml version="1.0" encoding="utf-8"?>
<!-- Generator: Adobe Illustrator 25.2.0, SVG Export Plug-In . SVG Version: 6.00 Build 0)  -->
<svg version="1.1" id="Layer_1" xmlns="http://www.w3.org/2000/svg" xmlns:xlink="http://www.w3.org/1999/xlink" x="0px" y="0px"
	 viewBox="0 0 18 31.5" style="enable-background:new 0 0 18 31.5;" xml:space="preserve">
<g id="Group_84" transform="translate(-985 -1054)">
	<path id="Path_707" d="M1003,1056.8c0-1.6-1.3-2.8-2.9-2.8h-12.1c-1.6,0-2.9,1.3-2.9,2.8v25.8c0.1,1.6,1.4,2.8,2.9,2.8h12.1
		c1.6,0,2.9-1.3,2.9-2.8V1056.8z M987.9,1055h12.1c1,0,1.9,0.8,1.9,1.8v2.1h-16v-2C986.1,1055.8,986.9,1055,987.9,1055z
		 M1002,1059.9v19.7h-16v-19.7H1002z M1000.1,1084.5h-12.1c-1,0-1.9-0.8-1.9-1.9v-2.1h16v2.1
		C1002,1083.7,1001.1,1084.5,1000.1,1084.5z M993,1057c0-0.6,0.4-1,1-1c0.6,0,1,0.4,1,1c0,0.6-0.4,1-1,1c0,0,0,0,0,0
		C993.4,1058,993,1057.5,993,1057z M996,1082.5c0,0.3-0.2,0.5-0.5,0.5c0,0,0,0,0,0h-3c-0.3,0-0.5-0.2-0.6-0.4c0-0.3,0.2-0.5,0.4-0.6
		c0,0,0.1,0,0.1,0h3C995.8,1082,996,1082.3,996,1082.5C996,1082.5,996,1082.5,996,1082.5z"/>
</g>
</svg>
