<?xml version="1.0" encoding="utf-8"?>
<!-- Generator: Adobe Illustrator 25.2.0, SVG Export Plug-In . SVG Version: 6.00 Build 0)  -->
<svg version="1.1" id="Layer_1" xmlns="http://www.w3.org/2000/svg" xmlns:xlink="http://www.w3.org/1999/xlink" x="0px" y="0px"
	 viewBox="0 0 28 21" style="enable-background:new 0 0 28 21;" xml:space="preserve">
<style type="text/css">
	.st0{fill-rule:evenodd;clip-rule:evenodd;}
</style>
<g id="Group_72" transform="translate(-651 -945)">
	<path id="Path_701" class="st0" d="M662.4,946.8c0.2-0.6,0.8-1.1,1.5-1.1h7.8c0.7,0,1.3,0.4,1.6,1.1l0,0l1.5,3.8h-13.8L662.4,946.8
		L662.4,946.8L662.4,946.8z M665.5,951.3h-7.2c-0.7,0-1.3,0.4-1.5,1.1v0l-1.4,3.8h13.8l-1.5-3.8l0,0c-0.3-0.7-0.9-1.1-1.6-1.1
		L665.5,951.3z M667.8,951.3c0.2,0.2,0.4,0.5,0.5,0.8l0,0l1.6,4.1v-1.5c0-0.2,0.2-0.4,0.4-0.4c0,0,0,0,0,0h2.4c0-0.1,0-0.2,0-0.3
		c0-0.8,0.6-1.4,1.4-1.4c0.8,0,1.4,0.6,1.4,1.4c0,0.8-0.6,1.4-1.4,1.4c-0.2,0-0.5-0.1-0.7-0.2v1.1c0,0.2-0.2,0.4-0.4,0.4
		c0,0,0,0,0,0h-2c0.2,0.2,0.5,0.5,0.6,0.8h2.8c0.2,0,0.3,0.2,0.4,0.3c0,0,0,0,0,0v1.7h2.1v-6.3c0-1.1-0.9-2.1-2.1-2.1H667.8z
		 M672,958.3c0,0.2,0.1,0.4,0.1,0.6v6.7c0,0.2-0.2,0.4-0.4,0.4c0,0,0,0,0,0h-2.8c-0.2,0-0.4-0.2-0.4-0.4c0,0,0,0,0,0v-1.7h-12.6v1.7
		c0,0.2-0.2,0.4-0.4,0.4h-2.8c-0.2,0-0.4-0.2-0.4-0.4V959c0-0.8,0.3-1.6,0.9-2.1h-2c-0.2,0-0.4-0.2-0.4-0.4c0,0,0,0,0,0v-1.7
		c0-0.2,0.2-0.4,0.4-0.4c0,0,0,0,0,0h2.8c0.2,0,0.4,0.2,0.3,0.4v1.5h0l1.6-4.1c0.3-0.9,1.2-1.5,2.2-1.5h1.8l1.6-4.1
		c0.3-0.9,1.2-1.5,2.2-1.5h7.8c1,0,1.9,0.6,2.2,1.6l0,0l1.6,4.1v-1.4c0-0.2,0.2-0.4,0.3-0.4h2.8c0.2,0,0.4,0.2,0.4,0.4c0,0,0,0,0,0
		v1.7c0,0.2-0.2,0.4-0.4,0.4c0,0,0,0,0,0h-1.9c0.6,0.5,0.9,1.3,0.9,2.1v6.7c0,0.2-0.2,0.4-0.4,0.4c0,0,0,0,0,0h-2.8
		c-0.2,0-0.4-0.2-0.4-0.4c0,0,0,0,0,0v-1.7H672z M662.2,963.2h-6.7c-0.2,0-0.4,0.2-0.4,0.3v1.7h-2.1V959c0-1.1,0.9-2.1,2.1-2.1
		c0,0,0,0,0,0h14.1c1.1,0,2.1,0.9,2.1,2.1v6.3h-2.1v-1.7c0-0.2-0.2-0.3-0.3-0.3H662.2z M651.7,956.2v-1h2.1v1H651.7z M672.7,955.1v1
		h-2.1v-1H672.7z M655.9,959c-0.4,0-0.7,0.3-0.7,0.7s0.3,0.7,0.7,0.7c0.4,0,0.7-0.3,0.7-0.7c0,0,0,0,0,0
		C656.6,959.3,656.3,959,655.9,959L655.9,959z M654.5,959.7c0-0.8,0.6-1.4,1.4-1.4c0.8,0,1.4,0.6,1.4,1.4c0,0.8-0.6,1.4-1.4,1.4
		C655.1,961.1,654.5,960.5,654.5,959.7C654.5,959.7,654.5,959.7,654.5,959.7L654.5,959.7z M667.8,959.7c0-0.4,0.3-0.7,0.7-0.7
		s0.7,0.3,0.7,0.7s-0.3,0.7-0.7,0.7S667.8,960.1,667.8,959.7z M668.5,958.3c-0.8,0-1.4,0.6-1.4,1.4s0.6,1.4,1.4,1.4s1.4-0.6,1.4-1.4
		c0,0,0,0,0,0C669.9,958.9,669.3,958.3,668.5,958.3L668.5,958.3z M657,961.4c0-0.2,0.2-0.4,0.3-0.4h9.8c0.2,0,0.4,0.2,0.4,0.4
		c0,0.2-0.2,0.4-0.4,0.4c0,0,0,0,0,0h-9.8C657.1,961.8,657,961.6,657,961.4L657,961.4z M678.3,949.6v1h-2.1v-1H678.3z M674.1,953.4
		c-0.4,0-0.7,0.3-0.7,0.7c0,0.4,0.3,0.7,0.7,0.7l0,0c0.4,0,0.7-0.3,0.7-0.7C674.8,953.8,674.5,953.4,674.1,953.4z"/>
</g>
</svg>
