<?xml version="1.0" encoding="utf-8"?>
<!-- Generator: Adobe Illustrator 25.2.0, SVG Export Plug-In . SVG Version: 6.00 Build 0)  -->
<svg version="1.1" id="Layer_1" xmlns="http://www.w3.org/2000/svg" xmlns:xlink="http://www.w3.org/1999/xlink" x="0px" y="0px"
	 viewBox="0 0 30 30" style="enable-background:new 0 0 30 30;" xml:space="preserve">
<style type="text/css">
	.st0{fill-rule:evenodd;clip-rule:evenodd;}
</style>
<path id="Path_793" class="st0" d="M12.5,28.8c0,0.7,0.6,1.2,1.2,1.2h2.5c0.7,0,1.2-0.6,1.2-1.2V17.5h11.2c0.7,0,1.2-0.6,1.2-1.2
	v-2.5c0-0.7-0.6-1.2-1.2-1.2H17.5V1.2c0-0.7-0.6-1.2-1.2-1.2h-2.5c-0.7,0-1.2,0.6-1.2,1.2v11.2H1.2c-0.7,0-1.2,0.6-1.2,1.2v2.5
	c0,0.7,0.6,1.2,1.2,1.2h11.2V28.8z"/>
</svg>
