<?xml version="1.0" encoding="utf-8"?>
<!-- Generator: Adobe Illustrator 25.2.0, SVG Export Plug-In . SVG Version: 6.00 Build 0)  -->
<svg version="1.1" id="Layer_1" xmlns="http://www.w3.org/2000/svg" xmlns:xlink="http://www.w3.org/1999/xlink" x="0px" y="0px"
	 viewBox="0 0 30 24.4" style="enable-background:new 0 0 30 24.4;" xml:space="preserve">
<path id="Path_800" d="M29.7,22.4L1.7,0.2C1.6,0.1,1.4,0,1.3,0C1,0,0.8,0.1,0.7,0.3L0.2,0.9C0.1,1,0,1.2,0,1.4C0,1.6,0.1,1.8,0.3,2
	l28,22.3c0.1,0.1,0.3,0.2,0.5,0.1c0.2,0,0.4-0.1,0.6-0.3l0.5-0.6c0.1-0.1,0.2-0.3,0.2-0.5C30,22.8,29.9,22.6,29.7,22.4z M13.9,7
	l6.3,5c-0.1-2.8-2.4-5.1-5.2-5.1C14.7,6.9,14.2,7,13.9,7z M16.1,17.4l-6.3-5c0.1,2.8,2.4,5.1,5.2,5.1C15.4,17.5,15.7,17.5,16.1,17.4
	L16.1,17.4z M15,5.3c4.7,0.1,9,2.7,11.1,6.9c-0.6,1-1.3,2-2.1,2.9l1.8,1.4c1-1.1,1.8-2.3,2.5-3.6c0.2-0.4,0.2-1,0-1.4
	C25.8,6.4,20.7,3.1,15,3c-1.7,0-3.3,0.3-4.9,0.9l2.2,1.8C13.2,5.5,14.1,5.3,15,5.3L15,5.3z M15,19c-4.7,0-9-2.7-11.1-6.9
	c0.6-1,1.3-2,2.1-2.9L4.2,8c-1,1.1-1.8,2.3-2.5,3.6c-0.1,0.2-0.1,0.5-0.1,0.7c0,0.2,0,0.5,0.1,0.7C4.2,18,9.3,21.3,15,21.3
	c1.7,0,3.3-0.3,4.9-0.9l-2.2-1.8C16.8,18.9,15.9,19,15,19L15,19z"/>
</svg>
