<?xml version="1.0" encoding="utf-8"?>
<!-- Generator: Adobe Illustrator 25.2.0, SVG Export Plug-In . SVG Version: 6.00 Build 0)  -->
<svg version="1.1" id="Layer_1" xmlns="http://www.w3.org/2000/svg" xmlns:xlink="http://www.w3.org/1999/xlink" x="0px" y="0px"
	 viewBox="0 0 30 20" style="enable-background:new 0 0 30 20;" xml:space="preserve">
<path id="Path_799" d="M15,4.2c-0.5,0.1-1.2,0.2-1.7,0.3c0.2,0.4,0.3,0.9,0.4,1.4c0,1.6-1.3,2.9-2.9,2.9c-0.5,0-1-0.1-1.4-0.4
	C9.3,8.9,9.2,9.5,9.2,10c0,3.2,2.6,5.9,5.8,5.9c3.2,0,5.9-2.6,5.9-5.8C20.9,6.8,18.3,4.2,15,4.2C15,4.2,15,4.2,15,4.2z M29.8,9.3
	C25.8,1.1,16-2.3,7.8,1.7C4.5,3.3,1.8,6,0.2,9.3C0,9.5,0,9.8,0,10c0,0.3,0.1,0.5,0.2,0.7c4,8.2,14,11.6,22.2,7.5
	c3.3-1.6,5.9-4.2,7.5-7.5C30,10.5,30,10.3,30,10C30,9.7,29.9,9.5,29.8,9.3L29.8,9.3z M15,17.5c-5.2,0-10-2.9-12.4-7.5
	c3.6-6.8,12-9.5,18.9-5.9c2.5,1.3,4.6,3.4,5.9,5.9C25,14.6,20.2,17.5,15,17.5L15,17.5z"/>
</svg>
