<?xml version="1.0" encoding="utf-8"?>
<!-- Generator: Adobe Illustrator 25.2.0, SVG Export Plug-In . SVG Version: 6.00 Build 0)  -->
<svg version="1.1" id="Layer_1" xmlns="http://www.w3.org/2000/svg" xmlns:xlink="http://www.w3.org/1999/xlink" x="0px" y="0px"
	 viewBox="0 0 28 30" style="enable-background:new 0 0 28 30;" xml:space="preserve">
<g id="Group_83" transform="translate(-872 -1055)">
	<path id="Path_706" d="M875.8,1066.7c0-0.3,0.2-0.5,0.5-0.5c0,0,0,0,0,0h14.1c0.3,0,0.5,0.2,0.5,0.5c0,0.3-0.2,0.5-0.5,0.5h-14.1
		C876,1067.2,875.7,1067,875.8,1066.7z M888.5,1070h-12.2c-0.3,0-0.5,0.2-0.5,0.5c0,0,0,0,0,0c0,0.3,0.2,0.5,0.5,0.5c0,0,0,0,0,0
		h12.2c0.3,0,0.5-0.2,0.5-0.5c0,0,0,0,0,0C888.9,1070.2,888.7,1070,888.5,1070z M886.1,1074.2c0-0.3-0.2-0.5-0.5-0.5c0,0,0,0,0,0
		h-9.4c-0.3,0-0.5,0.2-0.5,0.5c0,0,0,0,0,0c0,0.3,0.2,0.5,0.4,0.5c0,0,0,0,0,0h9.4C885.9,1074.7,886.1,1074.5,886.1,1074.2
		C886.1,1074.2,886.1,1074.2,886.1,1074.2z M899.9,1067.4l-5.3,5.2v9.2c0,1.7-1.4,3.1-3.1,3.1c0,0,0,0-0.1,0h-16.3
		c-1.7,0-3.1-1.4-3.2-3.1c0,0,0,0,0,0v-21.6c0,0,0-0.1,0-0.1c0-0.1,0.1-0.2,0.2-0.3l4.6-4.7c0,0,0.1-0.1,0.1-0.1c0,0,0,0,0.1,0h0
		c0,0,0.1,0,0.1,0h14.4c0.8,0,1.7,0.3,2.2,0.9c0.6,0.6,0.9,1.4,0.9,2.2v9.2l2.6-2.6c0.2-0.2,0.5-0.2,0.7,0c0,0,0,0,0,0l2,2
		c0.1,0.1,0.1,0.2,0.1,0.3C900,1067.2,899.9,1067.3,899.9,1067.4L899.9,1067.4z M897.5,1068.4l-1.3-1.3l-8.6,8.6l-0.6,2l2-0.7
		L897.5,1068.4z M873.6,1059.8h3.1v-3.1L873.6,1059.8z M893.6,1073.6l-4.1,4.1c-0.1,0.1-0.1,0.1-0.2,0.1l-3,1c-0.1,0-0.1,0-0.2,0
		c-0.1,0-0.2-0.1-0.3-0.1c-0.1-0.1-0.2-0.3-0.1-0.5l1-3c0-0.1,0.1-0.1,0.1-0.2l6.8-6.8v-10.1c0-0.6-0.2-1.1-0.6-1.5
		c-0.4-0.4-1-0.6-1.6-0.7h-13.8v4.3c0,0.1-0.1,0.3-0.2,0.3c-0.1,0.1-0.2,0.1-0.3,0.1H873v21.1c0,1.2,1,2.2,2.2,2.2h16.3
		c0.6,0,1.2-0.2,1.6-0.7c0.4-0.4,0.6-1,0.6-1.5V1073.6z M898.8,1067.1l-1.3-1.3l-0.6,0.6l1.3,1.3L898.8,1067.1z"/>
</g>
</svg>
