<?xml version="1.0" encoding="utf-8"?>
<!-- Generator: Adobe Illustrator 25.2.0, SVG Export Plug-In . SVG Version: 6.00 Build 0)  -->
<svg version="1.1" id="Layer_1" xmlns="http://www.w3.org/2000/svg" xmlns:xlink="http://www.w3.org/1999/xlink" x="0px" y="0px"
	 viewBox="0 0 26.8 26.6" style="enable-background:new 0 0 26.8 26.6;" xml:space="preserve">
<g id="Group_77" transform="translate(-209.941 -1056.655)">
	<path id="Path_742" d="M233.6,1083.3c-0.4,0-0.8-0.1-1.2-0.2c-0.4-0.2-0.7-0.4-1-0.7l-13.4-13.4c-3.3,0.9-6.8-1-7.7-4.3
		c0,0,0,0,0-0.1c-0.3-1.1-0.3-2.2,0-3.3c0-0.1,0.1-0.1,0.1-0.2c0-0.1,0.1-0.1,0.2-0.1c0.1,0,0.1,0,0.2,0c0.1,0,0.1,0.1,0.2,0.1
		l3.1,3.1l2.8-0.7l0.7-2.8l-3.1-3.1c-0.1-0.1-0.1-0.1-0.1-0.2c0-0.1,0-0.1,0-0.2c0-0.1,0-0.1,0.1-0.2c0.1-0.1,0.1-0.1,0.2-0.1
		c3.3-0.9,6.7,1,7.7,4.3c0.3,1,0.3,2.1,0.1,3.2l13.5,13.5c0.4,0.4,0.7,1,0.9,1.6c0.3,1.3-0.3,2.6-1.4,3.3
		C234.8,1083.1,234.2,1083.3,233.6,1083.3L233.6,1083.3z M218,1068c0.1,0,0.2,0,0.3,0.1l0,0l13.6,13.6c0.2,0.2,0.5,0.4,0.8,0.5
		c0.3,0.1,0.6,0.2,0.9,0.2c0.3,0,0.6-0.1,0.9-0.2c0.3-0.1,0.5-0.3,0.8-0.5c0.2-0.2,0.4-0.5,0.5-0.8c0.1-0.3,0.2-0.6,0.2-0.9
		c0-0.3-0.1-0.6-0.2-0.9c-0.1-0.3-0.3-0.5-0.5-0.8l-13.7-13.7c-0.1-0.1-0.1-0.1-0.1-0.2c0-0.1,0-0.1,0-0.2c0.2-0.9,0.3-1.8,0.1-2.6
		c-0.2-0.9-0.6-1.7-1.2-2.3c-0.6-0.7-1.3-1.2-2.1-1.5c-0.8-0.3-1.7-0.4-2.6-0.3l2.8,2.8c0.1,0.1,0.1,0.1,0.1,0.2c0,0.1,0,0.1,0,0.2
		l-0.9,3.2c0,0.1-0.2,0.3-0.3,0.3l-3.2,0.9c-0.1,0-0.1,0-0.2,0c-0.1,0-0.1-0.1-0.2-0.1l-2.7-2.7c-0.4,2.8,1.6,5.5,4.4,6
		c0.9,0.2,1.8,0.1,2.7-0.2C217.9,1068,218,1068,218,1068z"/>
</g>
</svg>
