<?xml version="1.0" encoding="utf-8"?>
<!-- Generator: Adobe Illustrator 25.2.0, SVG Export Plug-In . SVG Version: 6.00 Build 0)  -->
<svg version="1.1" id="Layer_1" xmlns="http://www.w3.org/2000/svg" xmlns:xlink="http://www.w3.org/1999/xlink" x="0px" y="0px"
	 viewBox="0 0 30 30" style="enable-background:new 0 0 30 30;" xml:space="preserve">
<style type="text/css">
	.st0{fill-rule:evenodd;clip-rule:evenodd;}
</style>
<path id="Path_819" class="st0" d="M24.4,13.9c0.1,5.7-4.5,10.4-10.2,10.4C8.5,24.4,3.8,19.9,3.8,14.2C3.7,8.5,8.2,3.8,13.9,3.7
	c0,0,0.1,0,0.1,0C19.7,3.7,24.3,8.3,24.4,13.9C24.4,13.9,24.4,13.9,24.4,13.9z M22.4,25.1c-6.2,4.5-14.9,3.2-19.4-3S-0.2,7.2,6,2.7
	c6.2-4.5,14.9-3.2,19.4,3c1.7,2.4,2.7,5.3,2.7,8.2c0,3.1-1,6.1-3,8.6l4.4,4.3c0.7,0.7,0.6,1.9-0.1,2.6c-0.7,0.7-1.8,0.8-2.6,0.1
	L22.4,25.1z"/>
</svg>
