<?xml version="1.0" encoding="utf-8"?>
<!-- Generator: Adobe Illustrator 25.2.0, SVG Export Plug-In . SVG Version: 6.00 Build 0)  -->
<svg version="1.1" id="Layer_1" xmlns="http://www.w3.org/2000/svg" xmlns:xlink="http://www.w3.org/1999/xlink" x="0px" y="0px"
	 viewBox="0 0 21.2 27" style="enable-background:new 0 0 21.2 27;" xml:space="preserve">
<g id="Group_70" transform="translate(-434.37 -942.53)">
	<path id="Path_725" d="M447.9,949.6h-5.8c-0.3,0-0.6-0.1-0.8-0.2c-0.3-0.1-0.5-0.3-0.6-0.5c-0.2-0.2-0.3-0.5-0.3-0.8
		c0-0.3,0-0.6,0.1-0.8l1-3.4c0.1-0.4,0.3-0.7,0.6-0.9c0.3-0.2,0.7-0.4,1.1-0.4h3.8c0.4,0,0.8,0.1,1.1,0.4c0.3,0.2,0.5,0.6,0.7,0.9
		l1,3.4c0.1,0.3,0.1,0.6,0,0.8c-0.1,0.3-0.2,0.5-0.3,0.8c-0.2,0.2-0.4,0.4-0.6,0.5C448.5,949.5,448.2,949.6,447.9,949.6L447.9,949.6
		z M443.1,943.4c-0.2,0-0.4,0.1-0.6,0.2c-0.2,0.1-0.3,0.3-0.3,0.5l-1,3.4c0,0.1,0,0.3,0,0.4c0,0.1,0.1,0.3,0.2,0.4
		c0.1,0.1,0.2,0.2,0.3,0.3c0.1,0.1,0.3,0.1,0.4,0.1h5.8c0.1,0,0.3,0,0.4-0.1c0.1-0.1,0.3-0.2,0.3-0.3c0.1-0.1,0.2-0.3,0.2-0.4
		c0-0.1,0-0.3,0-0.4l-1-3.4c-0.1-0.2-0.2-0.4-0.3-0.5c-0.2-0.1-0.4-0.2-0.6-0.2H443.1z"/>
	<path id="Path_726" d="M450.5,965.8C450.5,965.8,450.5,965.8,450.5,965.8c-0.2,0-1.2-0.2-2.6-0.3c-0.1,0-0.2,0-0.3-0.1
		c-0.1-0.1-0.1-0.2-0.1-0.3v-9.5h-5.1v9.5c0,0.1,0,0.2-0.1,0.3c-0.1,0.1-0.2,0.1-0.3,0.1c-1.4,0.1-2.4,0.2-2.5,0.3
		c-0.1,0-0.2,0-0.3,0c-0.1,0-0.2-0.1-0.2-0.2l-0.2-0.6c-0.3-0.6-0.9-1-1.6-1c-0.1,0-0.2,0-0.3-0.1c-0.1-0.1-0.1-0.2-0.1-0.2
		c-0.1-1.5,0.1-3,0.7-4.4c0.7-1.7,0.7-2.7,0.7-5.6c-0.1-1.7,1.1-3.1,2.8-3.3c0.1,0,0.1,0,0.2,0h7.6c1.7,0,3,1.4,3,3.1
		c0,0.1,0,0.1,0,0.2c0,2.9,0,3.8,0.7,5.6c0.5,1.4,0.7,2.9,0.6,4.4c0,0.1-0.1,0.2-0.1,0.3c-0.1,0.1-0.2,0.1-0.3,0.1
		c-0.7,0-1.3,0.4-1.6,1l-0.2,0.6c0,0.1-0.1,0.1-0.2,0.2C450.7,965.7,450.6,965.8,450.5,965.8L450.5,965.8z M448.4,964.7
		c0.8,0.1,1.5,0.1,1.9,0.2l0.1-0.3c0.4-0.8,1.1-1.4,2-1.5c0.1-1.2-0.1-2.5-0.6-3.7c-0.8-1.9-0.8-3-0.8-5.9c0.2-1.2-0.7-2.3-1.9-2.4
		c-0.1,0-0.2,0-0.3,0h-7.6c-1.2,0-2.2,1-2.1,2.2c0,0.1,0,0.2,0,0.3c0,2.9,0,4-0.8,5.9c-0.5,1.2-0.7,2.4-0.7,3.7
		c0.9,0.1,1.6,0.7,2,1.5l0.1,0.3c0.4-0.1,1.1-0.1,1.9-0.2v-9.5c0-0.1,0-0.2,0.1-0.3c0.1-0.1,0.2-0.1,0.3-0.1h5.9
		c0.1,0,0.2,0,0.3,0.1c0.1,0.1,0.1,0.2,0.1,0.3V964.7z"/>
	<path id="Path_727" d="M448,965.5L448,965.5c-1.1-0.1-2.2-0.1-3.1-0.1c-0.9,0-1.8,0-2.8,0.1c-0.1,0-0.1,0-0.2,0
		c-0.1,0-0.1-0.1-0.1-0.1c-0.1-0.1-0.1-0.2-0.1-0.3v-9.9c0-0.2,0.2-0.4,0.4-0.4h5.9c0.1,0,0.2,0,0.3,0.1c0.1,0.1,0.1,0.2,0.1,0.3
		v9.9C448.4,965.3,448.2,965.5,448,965.5C448,965.5,448,965.5,448,965.5z M444.9,964.5c0.8,0,1.7,0,2.7,0.1v-9h-5.1v9
		C443.3,964.5,444.1,964.5,444.9,964.5L444.9,964.5z"/>
	<path id="Path_728" d="M453.8,969.5h-17.6c-0.1,0-0.2,0-0.2-0.1c-0.1,0-0.1-0.1-0.2-0.2l-1.3-2.9c-0.1-0.3-0.2-0.6-0.2-0.9
		c0-0.3,0.1-0.6,0.2-0.9c0.2-0.3,0.4-0.6,0.7-0.9c0.3-0.2,0.6-0.4,0.9-0.5c0.4-0.1,0.8-0.2,1.1-0.1c1,0,1.9,0.6,2.3,1.5l0.1,0.3
		c0.5-0.1,1.3-0.2,2.3-0.2s1.9-0.1,2.9-0.1c1,0,2,0.1,3.1,0.1c1,0.1,1.8,0.2,2.3,0.2l0.1-0.3c0.4-0.9,1.3-1.5,2.3-1.5
		c0.4,0,0.8,0,1.2,0.1l0,0c0.3,0.1,0.7,0.3,0.9,0.5c0.3,0.2,0.5,0.5,0.6,0.8c0.1,0.3,0.2,0.6,0.2,0.9c0,0.3-0.1,0.6-0.2,0.9
		l-1.2,2.9c0,0.1-0.1,0.1-0.2,0.2C454,969.5,453.9,969.5,453.8,969.5z M436.5,968.6h17l1.1-2.6c0.2-0.3,0.2-0.7,0-1.1
		c-0.2-0.4-0.6-0.8-1.1-0.9h0c-0.3-0.1-0.5-0.1-0.8-0.1c-0.7,0-1.3,0.4-1.6,1l-0.2,0.6c0,0.1-0.1,0.2-0.2,0.2c-0.1,0-0.2,0.1-0.3,0
		c-0.2,0-1.1-0.2-2.5-0.3c-1.1-0.1-2.1-0.1-3.1-0.1c-0.9,0-1.8,0-2.8,0.1c-1.4,0.1-2.4,0.2-2.5,0.3c-0.1,0-0.2,0-0.3-0.1
		c-0.1,0-0.2-0.1-0.2-0.2l-0.2-0.6c-0.3-0.6-0.9-1-1.6-1c-0.3,0-0.6,0-0.8,0.1c-0.2,0.1-0.4,0.2-0.6,0.3c-0.2,0.2-0.3,0.4-0.4,0.6
		c-0.1,0.3-0.1,0.7,0,1.1L436.5,968.6z"/>
</g>
</svg>
