<?xml version="1.0" encoding="utf-8"?>
<!-- Generator: Adobe Illustrator 25.2.0, SVG Export Plug-In . SVG Version: 6.00 Build 0)  -->
<svg version="1.1" id="Layer_1" xmlns="http://www.w3.org/2000/svg" xmlns:xlink="http://www.w3.org/1999/xlink" x="0px" y="0px"
	 viewBox="0 0 23.2 27" style="enable-background:new 0 0 23.2 27;" xml:space="preserve">
<g id="Group_79" transform="translate(-430.41 -1056.5)">
	<path id="Path_750" d="M442,1083.5C442,1083.5,441.9,1083.5,442,1083.5c-4.5-0.7-8.3-3.6-10.2-7.7c-0.9-1.8-1.3-3.8-1.4-5.9v-10.2
		c0-0.1,0-0.2,0.1-0.3c0.1-0.1,0.2-0.1,0.3-0.1c3.8-0.3,7.5-1.3,11-2.8c0.1-0.1,0.2-0.1,0.4,0c3.5,1.5,7.2,2.4,11,2.8
		c0.1,0,0.2,0.1,0.3,0.1c0.1,0.1,0.1,0.2,0.1,0.3v10.2c-0.1,2-0.5,4-1.4,5.9C450.3,1079.9,446.5,1082.8,442,1083.5
		C442.1,1083.5,442,1083.5,442,1083.5L442,1083.5z M431.2,1060.1v9.9c0.1,1.9,0.5,3.8,1.3,5.5c1.5,5.2,6.9,8.2,12.1,6.8
		c3.3-0.9,5.9-3.5,6.8-6.8c0.8-1.7,1.3-3.6,1.3-5.5v-9.9C446,1056.5,438,1056.5,431.2,1060.1z"/>
</g>
</svg>
