<?xml version="1.0" encoding="utf-8"?>
<!-- Generator: Adobe Illustrator 25.2.0, SVG Export Plug-In . SVG Version: 6.00 Build 0)  -->
<svg version="1.1" id="Layer_1" xmlns="http://www.w3.org/2000/svg" xmlns:xlink="http://www.w3.org/1999/xlink" x="0px" y="0px"
	 viewBox="0 0 23.2 27" style="enable-background:new 0 0 23.2 27;" xml:space="preserve">
<g id="Group_68" transform="translate(-213.41 -942.5)">
	<path id="Path_716" d="M225,969.5C225,969.5,224.9,969.5,225,969.5c-4.5-0.7-8.3-3.6-10.2-7.7c-0.9-1.8-1.3-3.8-1.4-5.9v-10.2
		c0-0.1,0-0.2,0.1-0.3c0.1-0.1,0.2-0.1,0.3-0.1c3.8-0.3,7.5-1.3,11-2.8c0.1,0,0.1,0,0.2,0c0.1,0,0.1,0,0.2,0c3.5,1.5,7.2,2.4,11,2.8
		c0.1,0,0.2,0.1,0.3,0.1c0.1,0.1,0.1,0.2,0.1,0.3V956c-0.1,2-0.5,4-1.4,5.9C233.3,965.9,229.5,968.8,225,969.5
		C225.1,969.5,225,969.5,225,969.5L225,969.5z M214.2,946.1v9.9c0.1,1.9,0.5,3.8,1.3,5.5c1.5,5.2,6.9,8.2,12.1,6.8
		c3.3-0.9,5.9-3.5,6.8-6.8c0.8-1.7,1.3-3.6,1.3-5.5v-9.9C229,942.5,221,942.5,214.2,946.1z"/>
	<path id="Path_717" d="M225,966.9C225,966.9,224.9,966.9,225,966.9c-3.5-0.7-6.4-2.9-7.9-6c-0.7-1.5-1.1-3.2-1.2-4.9v-8
		c0-0.1,0-0.2,0.1-0.3c0.1-0.1,0.2-0.1,0.3-0.2c2.9-0.4,5.8-1.2,8.6-2.2c0.1,0,0.2,0,0.3,0c2.8,1.1,5.6,1.8,8.6,2.2
		c0.1,0,0.2,0.1,0.3,0.2c0.1,0.1,0.1,0.2,0.1,0.3v8.1c-0.1,1.7-0.5,3.4-1.2,4.9C231.4,964,228.5,966.2,225,966.9
		C225.1,966.9,225,966.9,225,966.9z M216.8,948.3v7.7c0.1,1.6,0.5,3.1,1.1,4.6c1,3.9,5,6.3,9,5.3c2.6-0.7,4.6-2.7,5.3-5.3
		c0.7-1.4,1.1-3,1.1-4.6v-7.7C228.1,945.4,221.9,945.4,216.8,948.3z"/>
	<path id="Path_718" d="M223.2,959.5c-0.1,0-0.1,0-0.2,0c-0.1,0-0.1,0-0.1-0.1c-0.6-0.6-2.1-2.2-2.5-2.5c-0.1-0.1-0.1-0.2-0.2-0.3
		c0-0.1,0-0.2,0.1-0.3c0.1-0.1,0.2-0.1,0.3-0.2c0.1,0,0.2,0,0.3,0.1c0.4,0.3,1.7,1.6,2.2,2.3l5.8-5.8c0,0,0.1-0.1,0.1-0.1
		c0.1,0,0.1,0,0.2,0c0.1,0,0.1,0,0.2,0c0.1,0,0.1,0.1,0.1,0.1c0,0,0.1,0.1,0.1,0.1c0,0.1,0,0.1,0,0.2c0,0.1,0,0.1,0,0.2
		c0,0.1-0.1,0.1-0.1,0.1l-6.1,6.1C223.4,959.4,223.3,959.5,223.2,959.5z"/>
</g>
</svg>
