<?xml version="1.0" encoding="utf-8"?>
<!-- Generator: Adobe Illustrator 25.2.1, SVG Export Plug-In . SVG Version: 6.00 Build 0)  -->
<svg version="1.1" id="Layer_1" xmlns="http://www.w3.org/2000/svg" xmlns:xlink="http://www.w3.org/1999/xlink" x="0px" y="0px"
	 viewBox="0 0 22.3 26" style="enable-background:new 0 0 22.3 26;" xml:space="preserve">
<path d="M11.2,26C11.1,26,11.1,26,11.2,26c-5.9-1.2-8.6-4.7-9.8-7.4c-0.8-1.8-1.3-3.7-1.3-5.7V3.1C0,3,0,2.9,0.1,2.8
	c0.1-0.1,0.2-0.1,0.3-0.1C6.7,2.1,10.9,0.1,11,0c0.1,0,0.1,0,0.2,0c0.1,0,0.1,0,0.2,0c0,0,4.2,2,10.6,2.7c0.1,0,0.2,0.1,0.3,0.1
	c0.1,0.1,0.1,0.2,0.1,0.3V13c-0.1,2-0.5,3.9-1.3,5.7C19.7,21.3,17,24.8,11.2,26C11.2,26,11.2,26,11.2,26L11.2,26z M0.8,3.5V13
	c0.1,1.8,0.5,3.7,1.3,5.3c1.7,3.7,4.8,6,9.1,6.9c4.3-0.9,7.4-3.2,9.1-6.9c0.8-1.7,1.2-3.5,1.3-5.3V3.5C15.9,2.9,12,1.2,11.2,0.9
	C10.3,1.2,6.5,2.9,0.8,3.5L0.8,3.5z"/>
<path d="M11.2,23.4C11.1,23.4,11.1,23.4,11.2,23.4c-3.6-0.8-6.2-2.8-7.6-5.8c-0.7-1.5-1.1-3.1-1.2-4.7V5.2c0-0.1,0-0.2,0.1-0.3
	c0.1-0.1,0.2-0.1,0.3-0.1C5.6,4.4,8.4,3.6,11,2.6c0.1,0,0.2,0,0.3,0c2.7,1,5.4,1.8,8.3,2.2c0.1,0,0.2,0.1,0.3,0.1
	c0.1,0.1,0.1,0.2,0.1,0.3v7.7c-0.1,1.6-0.5,3.2-1.2,4.7C17.3,20.6,14.8,22.6,11.2,23.4C11.2,23.4,11.2,23.4,11.2,23.4L11.2,23.4z
	 M3.2,5.5v7.4c0.1,1.5,0.4,3,1.1,4.4c1.3,2.7,3.6,4.5,6.8,5.3c3.2-0.8,5.5-2.6,6.8-5.3c0.6-1.4,1-2.9,1.1-4.4V5.5
	c-2.7-0.4-5.4-1.1-7.9-2.1C8.6,4.4,5.9,5.1,3.2,5.5L3.2,5.5z"/>
<path d="M9.4,16.3c-0.1,0-0.1,0-0.2,0c0,0-0.1-0.1-0.1-0.1c-0.5-0.6-2-2.1-2.4-2.4c-0.1-0.1-0.1-0.2-0.1-0.3c0-0.1,0-0.2,0.1-0.3
	c0.1-0.1,0.2-0.1,0.3-0.1c0.1,0,0.2,0,0.3,0.1c0.4,0.3,1.6,1.6,2.2,2.2L15,9.8c0,0,0.1-0.1,0.1-0.1c0,0,0.1,0,0.2,0
	c0.1,0,0.1,0,0.2,0c0.1,0,0.1,0.1,0.1,0.1c0,0,0.1,0.1,0.1,0.1c0,0.1,0,0.1,0,0.2c0,0.1,0,0.1,0,0.2c0,0-0.1,0.1-0.1,0.1l-5.8,5.9
	C9.7,16.3,9.5,16.3,9.4,16.3z"/>
</svg>
