<?xml version="1.0" encoding="utf-8"?>
<!-- Generator: Adobe Illustrator 25.2.0, SVG Export Plug-In . SVG Version: 6.00 Build 0)  -->
<svg version="1.1" id="Layer_1" xmlns="http://www.w3.org/2000/svg" xmlns:xlink="http://www.w3.org/1999/xlink" x="0px" y="0px"
	 viewBox="0 0 26.5 26.5" style="enable-background:new 0 0 26.5 26.5;" xml:space="preserve">
<g id="Group_67" transform="translate(-100.676 -942.416)">
	<path id="Path_708" d="M113.9,968.9c-7.3,0-13.3-5.9-13.3-13.2s5.9-13.3,13.2-13.3s13.3,5.9,13.3,13.2c0,3.5-1.4,6.9-3.9,9.4
		C120.8,967.5,117.4,968.9,113.9,968.9z M113.9,943.3c-6.8,0-12.4,5.5-12.4,12.4s5.5,12.4,12.4,12.4c6.8,0,12.4-5.5,12.4-12.4
		c0-3.3-1.3-6.4-3.6-8.8C120.3,944.6,117.2,943.3,113.9,943.3z"/>
	<path id="Path_709" d="M113.9,958.7c-0.6,0-1.2-0.2-1.7-0.5c-0.5-0.3-0.9-0.8-1.1-1.3c-0.2-0.5-0.3-1.1-0.2-1.7
		c0.2-1.2,1.2-2.1,2.4-2.3c0.6-0.1,1.2-0.1,1.7,0.2c0.5,0.2,1,0.6,1.4,1.1c0.9,1.4,0.5,3.2-0.8,4.2
		C115.1,958.5,114.5,958.6,113.9,958.7L113.9,958.7z M113.9,953.5c-0.4,0-0.8,0.1-1.2,0.4c-0.7,0.5-1.1,1.4-0.9,2.2
		c0.1,0.4,0.3,0.8,0.6,1.1c0.3,0.3,0.7,0.5,1.1,0.6c0.4,0.1,0.8,0,1.2-0.1c1.1-0.5,1.6-1.7,1.2-2.8c-0.1-0.3-0.3-0.5-0.5-0.7
		C115,953.7,114.5,953.5,113.9,953.5L113.9,953.5z"/>
	<path id="Path_710" d="M112,965.7C112,965.7,111.9,965.7,112,965.7c-4.4-0.9-7.7-4.5-8.2-8.9c0-0.4-0.1-0.8-0.1-1.1
		c0-0.2,0-0.4,0-0.6c0-0.1,0-0.1,0.1-0.2c0-0.1,0.1-0.1,0.2-0.1c0.1,0,0.1-0.1,0.2-0.1c0.1,0,0.1,0,0.2,0.1c4,2.2,7,5.9,8.1,10.4
		c0,0.1,0,0.1,0,0.2c0,0.1-0.1,0.1-0.1,0.2c0,0-0.1,0.1-0.1,0.1C112.1,965.7,112.1,965.7,112,965.7L112,965.7z M104.5,955.8
		c0,0.3,0,0.6,0,0.9c0.2,1.9,1,3.6,2.2,5c1.2,1.4,2.8,2.4,4.6,2.9C110.3,961,107.9,957.8,104.5,955.8L104.5,955.8z"/>
	<path id="Path_711" d="M107.7,952.5h-2.9c-0.1,0-0.1,0-0.2-0.1c-0.1,0-0.1-0.1-0.1-0.1c0-0.1-0.1-0.1-0.1-0.2c0-0.1,0-0.1,0-0.2
		c2.1-5.2,8-7.8,13.2-5.8c2.6,1,4.7,3.1,5.8,5.8c0,0.1,0,0.1,0,0.2c0,0.1,0,0.1-0.1,0.2c0,0.1-0.1,0.1-0.2,0.1c-0.1,0-0.1,0-0.2,0.1
		h-2.8c-0.2,0-0.4,0-0.5-0.1c-0.2-0.1-0.3-0.2-0.4-0.3c-0.1-0.2-0.3-0.4-0.4-0.6l-0.4-0.5c-0.1-0.2-0.3-0.3-0.5-0.4
		c-0.2-0.1-0.4-0.1-0.6-0.1c-2.3,0-4.6,0-6.9,0c-0.2,0-0.4,0-0.6,0.1c-0.2,0.1-0.4,0.2-0.5,0.4c-0.1,0.2-0.2,0.3-0.4,0.5
		s-0.3,0.3-0.4,0.5c-0.1,0.2-0.2,0.3-0.4,0.4C108.1,952.5,107.9,952.5,107.7,952.5L107.7,952.5z M106,951.7h1.7c0.1,0,0.1,0,0.1,0
		c0,0,0.1-0.1,0.1-0.1c0.1-0.2,0.3-0.4,0.4-0.5s0.2-0.3,0.4-0.5c0.4-0.6,1.1-0.9,1.8-0.9c2.3,0,4.6,0,6.9,0c0.7,0,1.4,0.3,1.8,0.9
		l0.4,0.5c0.1,0.2,0.3,0.4,0.4,0.6c0,0,0.1,0.1,0.1,0.1c0,0,0.1,0,0.1,0c0.5,0,1,0,1.5,0h0.7c-2.2-4.7-7.8-6.7-12.5-4.5
		c-2,0.9-3.5,2.5-4.5,4.5L106,951.7z"/>
	<path id="Path_712" d="M116.1,965.6c-0.1,0-0.1,0-0.2,0c-0.1,0-0.1-0.1-0.2-0.1c0-0.1-0.1-0.1-0.1-0.2c0-0.1,0-0.1,0-0.2
		c1.1-4.3,3.9-8,7.8-10.2c0.1,0,0.1-0.1,0.2-0.1c0.1,0,0.1,0,0.2,0.1c0.1,0,0.1,0.1,0.1,0.1c0,0.1,0.1,0.1,0.1,0.2
		c0,0.1,0,0.3,0,0.4c0,0.4,0,0.8-0.1,1.2C123.5,961.2,120.4,964.7,116.1,965.6C116.1,965.6,116.1,965.6,116.1,965.6z M123.3,956
		c-3.2,2-5.5,5.1-6.6,8.7c3.5-1.1,6.1-4.2,6.5-7.8C123.2,956.5,123.3,956.2,123.3,956L123.3,956z"/>
</g>
</svg>
