<?xml version="1.0" encoding="utf-8"?>
<!-- Generator: Adobe Illustrator 25.2.0, SVG Export Plug-In . SVG Version: 6.00 Build 0)  -->
<svg version="1.1" id="Layer_1" xmlns="http://www.w3.org/2000/svg" xmlns:xlink="http://www.w3.org/1999/xlink" x="0px" y="0px"
	 viewBox="0 0 30 23.1" style="enable-background:new 0 0 30 23.1;" xml:space="preserve">
<style type="text/css">
	.st0{fill-rule:evenodd;clip-rule:evenodd;}
</style>
<path id="Path_832" class="st0" d="M26.2,0.4L9.8,16.7l-6-6c-0.5-0.5-1.3-0.5-1.7,0l-1.7,1.7c-0.5,0.5-0.5,1.2,0,1.7L7.3,21L9,22.8
	c0.5,0.5,1.2,0.5,1.7,0c0,0,0,0,0,0l1.7-1.7l0,0L29.7,3.8c0.5-0.5,0.5-1.2,0-1.7l-1.7-1.7C27.4-0.1,26.7-0.1,26.2,0.4
	C26.2,0.4,26.2,0.4,26.2,0.4z"/>
</svg>
