<?xml version="1.0" encoding="utf-8"?>
<!-- Generator: Adobe Illustrator 25.2.0, SVG Export Plug-In . SVG Version: 6.00 Build 0)  -->
<svg version="1.1" id="Layer_1" xmlns="http://www.w3.org/2000/svg" xmlns:xlink="http://www.w3.org/1999/xlink" x="0px" y="0px"
	 viewBox="0 0 30 24.4" style="enable-background:new 0 0 30 24.4;" xml:space="preserve">
<path id="Path_816" d="M2.1,15.4c-0.3,0.2-0.5,0.7-0.3,1l0.4,0.6c0.2,0.4,0.6,0.5,1,0.3c0,0,0,0,0,0l4.4-2.6
	c-0.4-0.6-0.9-1.2-1.2-1.9L2.1,15.4z M5.2,8H0.8C0.3,8,0,8.3,0,8.8v0.8c0,0.4,0.3,0.8,0.7,0.8c0,0,0,0,0,0h4.7
	C5.3,9.7,5.3,9,5.3,8.4L5.2,8z M11.2,21.9c0,0.1,0,0.3,0.1,0.4l1.2,1.7c0.1,0.2,0.4,0.3,0.6,0.3h3.7c0.2,0,0.5-0.1,0.6-0.3l1.2-1.7
	c0.1-0.1,0.1-0.3,0.1-0.4v-2.1h-7.5L11.2,21.9z M2.1,2.9l3.7,2.2c0.3-0.7,0.6-1.4,1-2L3.2,1c-0.3-0.2-0.8-0.1-1,0.2c0,0,0,0,0,0
	L1.8,1.9C1.6,2.2,1.7,2.7,2.1,2.9L2.1,2.9z M27.9,2.9c0.3-0.2,0.5-0.7,0.3-1l-0.4-0.6c-0.2-0.4-0.6-0.5-1-0.3c0,0,0,0,0,0L23.2,3
	c0.4,0.6,0.8,1.3,1,2L27.9,2.9z M27.9,15.4l-4.3-2.5c-0.3,0.7-0.8,1.3-1.3,1.9l4.4,2.6c0.3,0.2,0.8,0.1,1-0.2c0,0,0,0,0,0l0.4-0.6
	C28.4,16.1,28.2,15.7,27.9,15.4L27.9,15.4z M29.2,8h-4.5c0,0.1,0,0.3,0,0.4c0,0.6-0.1,1.3-0.2,1.9h4.7c0.4,0,0.7-0.3,0.8-0.8V8.8
	C30,8.4,29.7,8,29.2,8z M15,0c-4.6,0-8.3,3.7-8.3,8.3c0,0,0,0.1,0,0.1c0,2,0.7,4,2,5.5c1.1,1.3,1.9,2.8,2.4,4.4h2.2
	c0-0.2,0-0.5-0.1-0.7c-0.6-1.9-1.6-3.7-2.9-5.2C9.5,11.3,9,9.9,9,8.4c-0.1-3.3,2.6-6,5.9-6.1c0,0,0.1,0,0.1,0c3.3,0,6,2.8,6,6.1
	c0,1.5-0.5,2.9-1.5,4c-1.3,1.5-2.3,3.3-2.9,5.2c-0.1,0.2-0.1,0.4-0.1,0.7h2.2c0.5-1.6,1.3-3.1,2.4-4.4c1.3-1.5,2.1-3.5,2.1-5.5
	C23.3,3.8,19.6,0,15,0z"/>
</svg>
