<?xml version="1.0" encoding="utf-8"?>
<!-- Generator: Adobe Illustrator 25.2.0, SVG Export Plug-In . SVG Version: 6.00 Build 0)  -->
<svg version="1.1" id="Layer_1" xmlns="http://www.w3.org/2000/svg" xmlns:xlink="http://www.w3.org/1999/xlink" x="0px" y="0px"
	 viewBox="0 0 25.4 30" style="enable-background:new 0 0 25.4 30;" xml:space="preserve">
<path id="Path_795" d="M15.2,24.4h1.4c0.4,0,0.7-0.3,0.7-0.7V11c0-0.4-0.3-0.7-0.7-0.7h-1.4c-0.4,0-0.7,0.3-0.7,0.7v12.7
	C14.5,24,14.8,24.4,15.2,24.4C15.2,24.4,15.2,24.4,15.2,24.4z M24.5,4.7h-4.7l-1.9-3.3c-0.5-0.8-1.4-1.3-2.3-1.4H9.8
	C8.9,0.1,8,0.6,7.5,1.4L5.5,4.7H0.9C0.4,4.7,0,5.1,0,5.6v0.9c0,0.5,0.4,0.9,0.9,0.9c0,0,0,0,0,0h0.9v19.7C1.8,28.7,3,30,4.5,30
	c0,0,0,0,0.1,0h16.3c1.5,0,2.7-1.3,2.7-2.8c0,0,0,0,0,0V7.5h0.9c0.5,0,0.9-0.4,0.9-0.9V5.6C25.4,5.1,25,4.7,24.5,4.7z M9.7,3
	C9.8,2.9,9.9,2.8,10,2.8h5.4c0.1,0,0.2,0.1,0.3,0.2l1,1.7H8.7L9.7,3z M20.9,27.2H4.5V7.5h16.3V27.2z M8.8,24.4h1.4
	c0.4,0,0.7-0.3,0.7-0.7V11c0-0.4-0.3-0.7-0.7-0.7H8.8c-0.4,0-0.7,0.3-0.7,0.7v12.7C8.1,24,8.4,24.4,8.8,24.4
	C8.8,24.4,8.8,24.4,8.8,24.4z"/>
</svg>
