<?xml version="1.0" encoding="utf-8"?>
<!-- Generator: Adobe Illustrator 25.2.0, SVG Export Plug-In . SVG Version: 6.00 Build 0)  -->
<svg version="1.1" id="Layer_1" xmlns="http://www.w3.org/2000/svg" xmlns:xlink="http://www.w3.org/1999/xlink" x="0px" y="0px"
	 viewBox="0 0 38.4 30" style="enable-background:new 0 0 38.4 30;" xml:space="preserve">
<style type="text/css">
	.st0{fill-rule:evenodd;clip-rule:evenodd;}
</style>
<g id="Group_66" transform="translate(-1019 -890)">
	<path id="Path_801" class="st0" d="M1023.6,901.5c6.2,0,9.6,0,18.5,0h2.3c1.3,0,2.3,1,2.3,2.3v13.8c0,1.3-1,2.3-2.3,2.3h-23.1
		c-1.3,0-2.3-1-2.3-2.3v-13.8c0-1.3,1-2.3,2.3-2.3L1023.6,901.5z M1042.1,905h-19.6v11.5h20.8V905H1042.1z"/>
	<path id="Path_869" class="st0" d="M1053.6,899.2v2.3h-11.5v-2.3c0-3.2,2.7-5.7,5.8-5.7C1051.1,893.6,1053.6,896.1,1053.6,899.2z
		 M1038.6,901.5v-2.3c0-5.1,4.2-9.2,9.3-9.2c5.1,0,9.2,4.1,9.2,9.2v2.3H1038.6z"/>
</g>
</svg>
