<?xml version="1.0" encoding="utf-8"?>
<!-- Generator: Adobe Illustrator 25.2.0, SVG Export Plug-In . SVG Version: 6.00 Build 0)  -->
<svg version="1.1" id="Layer_1" xmlns="http://www.w3.org/2000/svg" xmlns:xlink="http://www.w3.org/1999/xlink" x="0px" y="0px"
	 viewBox="0 0 27.7 30" style="enable-background:new 0 0 27.7 30;" xml:space="preserve">
<path id="Path_802" d="M19.3,17.8c-1.8,0-2.6,0.9-5.5,0.9c-3,0-3.8-0.9-5.6-0.9c-4.5-0.1-8.2,3.4-8.3,7.9v1.5C0,28.8,1.3,30,2.9,30
	c0,0,0,0,0.1,0h21.8c1.6,0,2.9-1.2,3-2.8v-1.5C27.6,21.2,23.8,17.7,19.3,17.8z M24.7,27.2H3v-1.5c0.1-2.9,2.4-5.2,5.3-5.1
	c0,0,0,0,0,0c0.9,0,2.3,0.9,5.6,0.9c3.2,0,4.6-0.9,5.5-0.9c2.9-0.1,5.3,2.2,5.4,5.1L24.7,27.2z M13.8,16.9c4.7-0.2,8.2-4.2,8-8.9
	c-0.2-4.7-4.2-8.2-8.9-8c-4.5,0.2-8,3.9-8,8.4C5.1,13.2,9.1,17,13.8,16.9z M13.8,2.8C17,2.6,19.6,5,19.8,8.1
	c0.2,3.1-2.2,5.8-5.3,5.9c-0.2,0-0.4,0-0.6,0c-3.1,0.2-5.8-2.2-5.9-5.3C7.8,5.6,10.1,3,13.2,2.8C13.4,2.8,13.6,2.8,13.8,2.8z"/>
</svg>
