<?xml version="1.0" encoding="utf-8"?>
<!-- Generator: Adobe Illustrator 25.2.0, SVG Export Plug-In . SVG Version: 6.00 Build 0)  -->
<svg version="1.1" id="Layer_1" xmlns="http://www.w3.org/2000/svg" xmlns:xlink="http://www.w3.org/1999/xlink" x="0px" y="0px"
	 viewBox="0 0 35 30" style="enable-background:new 0 0 35 30;" xml:space="preserve">
<style type="text/css">
	.st0{fill-rule:evenodd;clip-rule:evenodd;}
</style>
<g id="Group_63" transform="translate(-650.002 -745)">
	<path id="Path_867" d="M669.4,762.8c-1.8,0-2.6,0.9-5.5,0.9c-3,0-3.8-0.9-5.6-0.9c-4.5-0.1-8.2,3.4-8.3,7.9v1.5
		c0,1.6,1.3,2.8,2.9,2.8c0,0,0,0,0.1,0h21.8c1.6,0,2.9-1.2,3-2.8v-1.5C677.6,766.2,673.8,762.7,669.4,762.8z M674.7,772.2H653v-1.5
		c0.1-2.9,2.4-5.2,5.3-5.1c0,0,0,0,0,0c0.9,0,2.3,0.9,5.6,0.9c3.2,0,4.6-0.9,5.5-0.9c2.9-0.1,5.3,2.2,5.4,5.1L674.7,772.2z
		 M663.8,761.9c4.7-0.2,8.2-4.2,8-8.9c-0.2-4.7-4.2-8.2-8.9-8c-4.5,0.2-8,3.9-8,8.4C655.1,758.2,659.1,762,663.8,761.9z
		 M663.8,747.8c3.1-0.2,5.8,2.2,5.9,5.3c0.2,3.1-2.2,5.8-5.3,5.9c-0.2,0-0.4,0-0.6,0c-3.1,0.2-5.8-2.2-5.9-5.3
		c-0.2-3.1,2.2-5.8,5.3-5.9C663.4,747.8,663.6,747.8,663.8,747.8z"/>
	<path id="Path_868" class="st0" d="M683.7,754.8l-5.6,5.6l-2.1-2.1c-0.2-0.2-0.4-0.2-0.6,0l-0.6,0.6c-0.2,0.2-0.2,0.4,0,0.6
		l2.4,2.4l0.6,0.6c0.2,0.2,0.4,0.2,0.6,0c0,0,0,0,0,0l0.6-0.6l0,0l5.9-5.9c0.2-0.2,0.2-0.4,0-0.6l-0.6-0.6
		C684.1,754.7,683.8,754.7,683.7,754.8z"/>
</g>
</svg>
