<?xml version="1.0" encoding="utf-8"?>
<!-- Generator: Adobe Illustrator 25.2.0, SVG Export Plug-In . SVG Version: 6.00 Build 0)  -->
<svg version="1.1" id="Layer_1" xmlns="http://www.w3.org/2000/svg" xmlns:xlink="http://www.w3.org/1999/xlink" x="0px" y="0px"
	 viewBox="0 0 30 18" style="enable-background:new 0 0 30 18;" xml:space="preserve">
<g id="Group_74" transform="translate(-870 -947)">
	<path id="Path_703" d="M899.5,957.6h-0.4v-3.8c0-0.2-0.1-0.3-0.3-0.4l-2.4-0.7l-2.5-5.5c-0.1-0.2-0.2-0.2-0.4-0.2h-20.1
		c-1.4,0-2.5,1.1-2.6,2.5v8.2h-0.4c-0.2,0-0.4,0.2-0.4,0.4c0,0,0,0,0,0v3.3c0,0.2,0.2,0.4,0.4,0.4c0,0,0,0,0,0h2.1
		c0.1,1.9,1.7,3.4,3.6,3.3c1.8-0.1,3.2-1.5,3.3-3.3h10.2c0.1,1.9,1.7,3.4,3.6,3.3c1.8-0.1,3.2-1.5,3.3-3.3h3c0.2,0,0.4-0.2,0.4-0.4
		c0,0,0,0,0,0V958C900,957.8,899.8,957.6,899.5,957.6z M895.5,952.7l-5.8,0v-4.9h3.6L895.5,952.7z M876,964.2
		c-1.4-0.1-2.4-1.2-2.4-2.6s1.2-2.4,2.6-2.4c1.2,0,2.2,0.9,2.4,2.1v0c0,0.1,0,0.2,0,0.3C878.5,963.1,877.4,964.2,876,964.2
		C876,964.2,876,964.2,876,964.2L876,964.2z M893.1,964.2c-1.4-0.1-2.4-1.2-2.4-2.6c0.1-1.4,1.2-2.4,2.6-2.4
		c1.3,0.1,2.4,1.1,2.4,2.5C895.7,963.1,894.5,964.2,893.1,964.2L893.1,964.2z M899.1,960.9h-2.7c-0.6-1.9-2.5-2.9-4.4-2.4
		c-1.1,0.3-2,1.2-2.4,2.4h-10.4c-0.5-1.9-2.5-2.9-4.3-2.4c-1.1,0.3-2,1.2-2.4,2.4h-1.8v-2.4h0.4c0.1,0,0.1,0,0.2,0
		c0.2-0.1,0.3-0.2,0.3-0.4v-8.6c0-0.9,0.8-1.7,1.7-1.7h15.4v5.3c0,0.1,0,0.2,0.1,0.3c0.1,0.1,0.2,0.1,0.3,0.1l6.9,0c0,0,0.1,0,0.1,0
		l2,0.6v3.9c0,0,0,0.1,0,0.1c0,0.2,0.2,0.3,0.4,0.3h0.4L899.1,960.9L899.1,960.9z"/>
</g>
</svg>
