<?xml version="1.0" encoding="utf-8"?>
<!-- Generator: Adobe Illustrator 25.2.0, SVG Export Plug-In . SVG Version: 6.00 Build 0)  -->
<svg version="1.1" id="Layer_1" xmlns="http://www.w3.org/2000/svg" xmlns:xlink="http://www.w3.org/1999/xlink" x="0px" y="0px"
	 viewBox="0 0 30 12" style="enable-background:new 0 0 30 12;" xml:space="preserve">
<g id="Group_82" transform="translate(-759.002 -1064)">
	<path id="Path_705" d="M789,1075.5l-1.4-8c0-0.1,0-0.1-0.1-0.2c-0.1-0.1-2.6-3.3-13.5-3.3H774c-10.9,0-13.4,3.2-13.5,3.3
		c0,0-0.1,0.1-0.1,0.2l-1.4,8c0,0.1,0,0.3,0.1,0.4c0.1,0.1,0.3,0.1,0.4,0.1c3-0.8,6-1.4,9-1.7c6.7-0.8,13.4-0.2,19.9,1.7
		c0,0,0.1,0,0.1,0c0.1,0,0.2,0,0.3-0.1C789,1075.8,789,1075.7,789,1075.5z M780.7,1073.5c0.1-0.2,0-0.4-0.2-0.5
		c-2.5-1.1-5.2-1.8-7.9-2.3c-0.2,0-0.4,0.1-0.5,0.3s0.1,0.4,0.3,0.5c0,0,0,0,0,0c2.2,0.4,4.4,1,6.5,1.8c-2.6-0.2-5.3-0.2-8-0.1
		c0-0.2-0.1-0.4-0.3-0.4c-2.6-0.8-5.4-1.3-8.1-1.5c-0.2,0-0.4,0.2-0.5,0.4c0,0.2,0.2,0.4,0.4,0.4c0,0,0,0,0,0c2.4,0.2,4.7,0.6,7,1.2
		c-0.4,0-0.7,0.1-1.1,0.1c-2.9,0.3-5.7,0.8-8.5,1.6l1.3-7.2c0.7-0.6,1.5-1.1,2.4-1.4c3.2-1.1,6.6-1.6,10-1.5v0.8h-1.3
		c-0.2,0-0.4,0.2-0.4,0.4c0,0.2,0.2,0.4,0.4,0.4c0,0,0,0,0,0h3.5c0.2,0,0.4-0.2,0.4-0.4c0-0.2-0.2-0.4-0.4-0.4c0,0,0,0,0,0h-1.3
		v-0.8c3.4-0.1,6.8,0.4,9.9,1.5c0.9,0.3,1.7,0.8,2.4,1.4l1.2,7.2C785.6,1074.3,783.2,1073.8,780.7,1073.5z"/>
</g>
</svg>
