<?xml version="1.0" encoding="utf-8"?>
<!-- Generator: Adobe Illustrator 25.2.0, SVG Export Plug-In . SVG Version: 6.00 Build 0)  -->
<svg version="1.1" id="Layer_1" xmlns="http://www.w3.org/2000/svg" xmlns:xlink="http://www.w3.org/1999/xlink" x="0px" y="0px"
	 viewBox="0 0 40 40" style="enable-background:new 0 0 40 40;" xml:space="preserve">
<style type="text/css">
	.st0{fill-rule:evenodd;clip-rule:evenodd;fill:#60759E;}
</style>
<path class="st0" d="M27.4,18.8c0,4.5-3.7,8.1-8.2,8.1c-4.6,0-8.2-3.7-8.2-8.1s3.7-8.1,8.2-8.1C23.7,10.7,27.4,14.3,27.4,18.8z
	 M25.8,27.8c-1.9,1.4-4.2,2.2-6.7,2.2c-6.2,0-11.2-5-11.2-11.1s5-11.1,11.2-11.1s11.2,5,11.2,11.1c0,2.6-0.9,5-2.4,6.9l3.5,3.5
	c0.5,0.5,0.5,1.5-0.1,2.1c-0.6,0.6-1.5,0.6-2.1,0.1L25.8,27.8L25.8,27.8z"/>
</svg>
