<?xml version="1.0" encoding="utf-8"?>
<!-- Generator: Adobe Illustrator 25.2.0, SVG Export Plug-In . SVG Version: 6.00 Build 0)  -->
<svg version="1.1" id="Layer_1" xmlns="http://www.w3.org/2000/svg" xmlns:xlink="http://www.w3.org/1999/xlink" x="0px" y="0px"
	 viewBox="0 0 40 40" style="enable-background:new 0 0 40 40;" xml:space="preserve">
<style type="text/css">
	.st0{fill:#60759E;}
</style>
<path class="st0" d="M35.7,30.9L5.8,7.2C5.7,7.1,5.5,7,5.3,7C5.1,7,4.8,7.2,4.7,7.3L4.2,8C4.1,8.1,4,8.3,4,8.5C4,8.7,4.2,9,4.3,9.1
	l29.9,23.8c0.1,0.1,0.3,0.2,0.5,0.2c0.2,0,0.5-0.1,0.6-0.3l0.5-0.6c0.1-0.1,0.2-0.4,0.2-0.5C36,31.4,35.8,31.1,35.7,30.9z
	 M18.8,14.5l6.7,5.3c-0.1-3-2.5-5.5-5.5-5.5C19.7,14.4,19.2,14.4,18.8,14.5z M21.2,25.6l-6.7-5.3c0.1,3,2.5,5.4,5.6,5.4
	C20.3,25.7,20.8,25.6,21.2,25.6L21.2,25.6z M20,12.7c4.9,0,9.4,2.8,11.8,7.3c-0.5,1-1.4,2.3-2.2,3.1l1.9,1.5c0.9-1,2-2.6,2.6-3.8
	c0.1-0.2,0.2-0.5,0.2-0.8c0-0.2-0.1-0.5-0.2-0.7c-2.7-5.4-8.1-9-14.2-9c-1.8,0-3.6,0.4-5.2,1l2.3,1.9C18,12.8,19,12.7,20,12.7
	L20,12.7z M20,27.3c-4.9,0-9.5-2.8-11.9-7.3c0.5-0.9,1.4-2.3,2.2-3l-1.9-1.5c-0.9,1-2,2.6-2.6,3.8c-0.1,0.2-0.2,0.5-0.2,0.8
	c0,0.2,0.1,0.5,0.2,0.7c2.7,5.4,8.1,9,14.2,9c1.8,0,3.5-0.4,5.2-0.9L22.9,27C22,27.2,21,27.3,20,27.3L20,27.3z"/>
</svg>
